<?xml version="1.0" encoding="utf-8"?><!-- Uploaded to: SVG Repo, www.svgrepo.com, Generator: SVG Repo Mixer Tools -->
<svg width="800px" height="800px" viewBox="0 0 24 24" fill="none" xmlns="http://www.w3.org/2000/svg">
<path fill-rule="evenodd" clip-rule="evenodd" d="M16.0603 18.307C14.89 19.0619 13.4962 19.5 12 19.5C10.5038 19.5 9.10996 19.0619 7.93972 18.307C8.66519 16.7938 10.2115 15.75 12 15.75C13.7886 15.75 15.3349 16.794 16.0603 18.307ZM17.2545 17.3516C16.2326 15.5027 14.2632 14.25 12 14.25C9.73663 14.25 7.76733 15.5029 6.74545 17.3516C5.3596 15.9907 4.5 14.0958 4.5 12C4.5 7.85786 7.85786 4.5 12 4.5C16.1421 4.5 19.5 7.85786 19.5 12C19.5 14.0958 18.6404 15.9908 17.2545 17.3516ZM21 12C21 16.9706 16.9706 21 12 21C7.02944 21 3 16.9706 3 12C3 7.02944 7.02944 3 12 3C16.9706 3 21 7.02944 21 12ZM12 12C13.2426 12 14.25 10.9926 14.25 9.75C14.25 8.50736 13.2426 7.5 12 7.5C10.7574 7.5 9.75 8.50736 9.75 9.75C9.75 10.9926 10.7574 12 12 12ZM12 13.5C14.0711 13.5 15.75 11.8211 15.75 9.75C15.75 7.67893 14.0711 6 12 6C9.92893 6 8.25 7.67893 8.25 9.75C8.25 11.8211 9.92893 13.5 12 13.5Z" fill="#080341"/>
</svg>