<?xml version="1.0" encoding="UTF-8" standalone="no"?>
<!-- Uploaded to: SVG Repo, www.svgrepo.com, Generator: SVG Repo Mixer Tools -->

<svg
   fill="#000000"
   height="16"
   width="16"
   version="1.1"
   id="Capa_1"
   viewBox="0 0 7.8 7.8"
   xml:space="preserve"
   sodipodi:docname="computer.svg"
   inkscape:version="1.3.2 (091e20e, 2023-11-25, custom)"
   xmlns:inkscape="http://www.inkscape.org/namespaces/inkscape"
   xmlns:sodipodi="http://sodipodi.sourceforge.net/DTD/sodipodi-0.dtd"
   xmlns="http://www.w3.org/2000/svg"
   xmlns:svg="http://www.w3.org/2000/svg"><defs
   id="defs2" /><sodipodi:namedview
   id="namedview2"
   pagecolor="#ffffff"
   bordercolor="#000000"
   borderopacity="0.25"
   inkscape:showpageshadow="2"
   inkscape:pageopacity="0.0"
   inkscape:pagecheckerboard="0"
   inkscape:deskcolor="#d1d1d1"
   inkscape:zoom="16.28"
   inkscape:cx="17.659705"
   inkscape:cy="15.110565"
   inkscape:window-width="1920"
   inkscape:window-height="1010"
   inkscape:window-x="1699"
   inkscape:window-y="-6"
   inkscape:window-maximized="1"
   inkscape:current-layer="Capa_1" />
<g
   id="g2"
   transform="matrix(0.01828343,0,0,0.01828343,0.02994472,1.0641678)"
   style="fill:#3879b4;fill-opacity:0.595041">
	<path
   d="M 383.408,84.898 H 132.23 V 116.23 H 363.468 V 283.035 H 132.23 v 41.225 h 42.014 l -29.597,28.516 c -0.978,0.942 -1.53,2.242 -1.53,3.601 v 6.396 c 0,2.761 2.238,5 5,5 h 151.375 c 2.762,0 5,-2.239 5,-5 v -6.396 c 0,-1.358 -0.553,-2.658 -1.531,-3.601 L 273.364,324.26 h 110.044 c 3.64,0 6.592,-2.951 6.592,-6.596 V 91.49 c 0,-3.64 -2.952,-6.592 -6.592,-6.592 z M 223.803,297.552 c 4.008,0 7.254,3.247 7.254,7.254 0,4.006 -3.246,7.254 -7.254,7.254 -4.003,0 -7.25,-3.248 -7.25,-7.254 0,-4.007 3.247,-7.254 7.25,-7.254 z"
   id="path1"
   style="fill:#3879b4;fill-opacity:0.595041" />
	<path
   d="M 101.607,22.228 H 8.076 C 3.615,22.228 0,25.843 0,30.304 v 329.059 c 0,4.461 3.615,8.076 8.076,8.076 h 93.531 c 4.461,0 8.076,-3.615 8.076,-8.076 V 30.304 c 10e-4,-4.461 -3.615,-8.076 -8.076,-8.076 z M 46.168,63.251 c 0,-0.705 0.571,-1.277 1.277,-1.277 H 62.24 c 0.705,0 1.277,0.572 1.277,1.277 v 127.422 c 0,0.706 -0.572,1.278 -1.277,1.278 H 47.445 c -0.706,0 -1.277,-0.572 -1.277,-1.278 z m 16.271,194.396 c 0,4.195 -3.4,7.598 -7.598,7.598 -4.196,0 -7.598,-3.402 -7.598,-7.598 0,-4.196 3.401,-7.598 7.598,-7.598 4.198,0 7.598,3.401 7.598,7.598 z m -7.597,60.641 c -9.877,0 -17.885,-8.007 -17.885,-17.885 0,-9.877 8.008,-17.885 17.885,-17.885 9.877,0 17.885,8.008 17.885,17.885 0,9.878 -8.008,17.885 -17.885,17.885 z"
   id="path2"
   style="fill:#3879b4;fill-opacity:0.595041" />
</g>
<path
   style="fill:#3879b4;fill-opacity:0.595041;stroke-width:0.00875986"
   d="m 2.7044619,7.7745466 c -0.040967,-0.017815 -0.055317,-0.052901 -0.055317,-0.1352489 0,-0.038555 0.00425,-0.079433 0.00945,-0.090838 C 2.6637849,7.5370557 2.792661,7.4077706 2.944972,7.2611618 L 3.2219013,6.9945995 2.8347856,6.9923178 2.4476699,6.9900362 V 6.6178254 6.2456221 H 4.5631773 6.678686 V 4.7170079 3.1884107 H 4.5631776 2.4476688 V 2.9037146 2.619019 h 2.3061725 c 2.232923,0 2.3071417,5.12e-4 2.3366955,0.01632 0.016784,0.00897 0.038409,0.029672 0.048042,0.04599 0.017388,0.029446 0.01752,0.045398 0.01752,2.1232778 0,2.0778792 -1.321e-4,2.093832 -0.01752,2.1232774 -0.00963,0.016318 -0.031255,0.037015 -0.048042,0.04599 -0.029272,0.015651 -0.072406,0.016323 -1.0511846,0.016438 l -1.0206614,1.132e-4 0.1927168,0.185685 c 0.105995,0.1021271 0.2341078,0.2260988 0.2846961,0.2754924 l 0.091978,0.089805 0.00247,0.085739 c 0.00283,0.098837 -0.00528,0.1220304 -0.050782,0.144854 -0.028696,0.014394 -0.1142238,0.015294 -1.4189772,0.014988 C 2.9574854,7.7867131 2.7278318,7.7847011 2.7044534,7.7745235 Z M 4.2021036,6.7488943 c 0.012959,-0.0094 0.031929,-0.033993 0.042156,-0.054656 0.0573,-0.1157804 -0.070569,-0.2391126 -0.1849107,-0.1783513 -0.091589,0.048671 -0.09525,0.1826729 -0.00652,0.2383797 0.036528,0.022932 0.1140924,0.020139 0.1492684,-0.00537 z"
   id="path3" /><path
   style="fill:#3879b4;fill-opacity:0.595041;stroke-width:0.00875986"
   d="M 0.12194287,7.764808 C 0.08657717,7.7463692 0.06602925,7.7268836 0.04875764,7.6954105 0.03543177,7.6711301 0.0343247,7.435571 0.0343247,4.6244156 V 1.5797207 L 0.058377,1.5433737 C 0.10668975,1.4703677 0.027049,1.4758807 1.0335896,1.4758807 H 1.927736 l 0.035221,0.023306 c 0.019372,0.012821 0.04175,0.037067 0.04973,0.053883 0.013419,0.028277 0.014509,0.2595623 0.014509,3.0785806 v 3.0480053 l -0.01978,0.029765 c -0.01088,0.016372 -0.037338,0.038634 -0.058795,0.049475 l -0.039016,0.019709 -0.8807008,-5.34e-5 c -0.781533,-4.3e-5 -0.88365819,-0.0016 -0.90696133,-0.013743 z M 1.1702622,6.85732 C 1.2397852,6.824863 1.2948144,6.771022 1.328596,6.7024023 c 0.02639,-0.053605 0.028469,-0.064254 0.028469,-0.1457957 0,-0.081543 -0.00208,-0.092191 -0.028469,-0.1457961 C 1.294845,6.3422525 1.239865,6.2884245 1.1702622,6.2557963 1.1268192,6.2354283 1.1094992,6.2324943 1.0329497,6.2324943 c -0.076549,0 -0.093869,0.00298 -0.13731217,0.023302 -0.0273429,0.012817 -0.0677474,0.039926 -0.0897889,0.060246 -0.11893575,0.109631 -0.13593375,0.3106431 -0.0371492,0.4393135 0.0384381,0.050066 0.0817151,0.083026 0.14242776,0.1084723 0.072666,0.030456 0.18605581,0.027608 0.25913501,-0.00651 z M 1.0996378,5.9031778 c 0.02765,-0.014233 0.068319,-0.069379 0.074171,-0.100578 0.011556,-0.061592 -0.026056,-0.135237 -0.08073,-0.1580813 -0.12470857,-0.052107 -0.24695806,0.072026 -0.18809197,0.1909892 0.020928,0.042294 0.051405,0.068031 0.092001,0.077694 0.028969,0.0069 0.079332,0.00197 0.10264997,-0.010024 z m 0.084858,-1.3324341 c 0.015273,-0.015275 0.015273,-2.3551473 0,-2.3704205 -0.011085,-0.011084 -0.27258957,-0.015617 -0.29974717,-0.00519 -0.0125405,0.00482 -0.0138569,0.1178589 -0.0138569,1.1906124 0,0.9400397 0.002268,1.1862094 0.0109499,1.1897136 0.024627,0.00994 0.29216977,0.00578 0.30265347,-0.0047 z"
   id="path4" /><path
   style="fill:#3879b4;fill-opacity:0.595041;stroke-width:0.00875986"
   d="m 0.47075607,7.7700951 c -0.32915427,-0.00443 -0.34418626,-0.00536 -0.3673733,-0.02269 -0.0132968,-0.00993 -0.0323037,-0.028947 -0.0422372,-0.042249 l -0.018061,-0.024189 -0.002452,-3.0486511 -0.002452,-3.0486514 0.0243327,-0.038462 c 0.013473,-0.021296 0.0360704,-0.043288 0.0506313,-0.049275 0.0201079,-0.00827 0.236204,-0.011491 0.91803043,-0.013698 l 0.8917319,-0.00287 0.030692,0.018967 c 0.065282,0.040346 0.059842,-0.04349 0.065867,1.0152153 0.00298,0.5229634 0.00593,1.8985072 0.00657,3.0567645 l 0.00116,2.1059218 -0.022444,0.029422 c -0.012344,0.016183 -0.041777,0.039224 -0.065408,0.051196 L 1.8963803,7.7786177 1.355167,7.7766977 C 1.0574965,7.7756423 0.65951192,7.7726672 0.4707536,7.770129 Z M 1.179153,6.856154 C 1.244665,6.824098 1.3189587,6.7439628 1.3431824,6.6792189 c 0.013203,-0.035287 0.018263,-0.069259 0.018263,-0.1226123 0,-0.1062755 -0.021636,-0.1590159 -0.095557,-0.2329376 -0.078438,-0.078437 -0.1300205,-0.098161 -0.2460784,-0.094094 -0.069923,0.00243 -0.0912516,0.00686 -0.13349537,0.027603 -0.06446,0.031653 -0.12172113,0.089151 -0.15217829,0.1528042 -0.0311056,0.065011 -0.0389245,0.1760452 -0.0175675,0.2495084 0.0255794,0.08799 0.104618,0.1722357 0.19618259,0.2091074 0.032964,0.013275 0.059164,0.016167 0.12906827,0.014243 0.075144,-0.00205 0.094818,-0.00589 0.1373334,-0.026689 z M 1.1072444,5.9040836 c 0.010373,-0.00556 0.03042,-0.028325 0.044551,-0.050605 0.041377,-0.065245 0.031756,-0.1357087 -0.025941,-0.1899735 -0.023131,-0.021757 -0.036203,-0.026411 -0.082108,-0.02924 -0.046297,-0.00284 -0.059226,-2.186e-4 -0.085048,0.017324 -0.016748,0.011377 -0.039414,0.033984 -0.050369,0.050242 -0.0450176,0.066801 -0.00922,0.1778121 0.067861,0.2104325 0.025867,0.010947 0.10448227,0.00604 0.13105397,-0.00818 z m 0.080179,-1.3469174 c 0.014123,-0.035804 0.013878,-2.3217055 -2.52e-4,-2.3481079 -0.00998,-0.018654 -0.014851,-0.019247 -0.1578887,-0.019247 -0.14564907,0 -0.14765727,2.585e-4 -0.15286983,0.019709 -0.006929,0.025853 -0.007131,2.3398326 -2.0406e-4,2.3578783 0.004561,0.011881 0.026459,0.013854 0.15351449,0.013854 h 0.1481976 z"
   id="path5" /><path
   style="fill:#3879b4;fill-opacity:0.595041;stroke-width:0.00875986"
   d="M 2.7105676,7.7671643 C 2.6682351,7.7526792 2.6563994,7.7230235 2.6563381,7.6312956 L 2.6562846,7.555231 2.9434065,7.2727252 3.2305284,6.9902194 H 2.8391001 2.4476687 V 6.6179251 6.2456308 H 4.5631776 6.6786864 V 4.7170337 3.1884365 H 4.5631776 2.4476687 V 2.9024771 2.6165177 l 2.2928961,0.0056 c 1.2610925,0.00309 2.3058766,0.00806 2.3217411,0.011072 0.015866,0.00302 0.040087,0.016716 0.053826,0.030455 0.02444,0.024442 0.025108,0.027683 0.030885,0.1500585 0.00324,0.068792 0.00465,1.0179273 0.00311,2.1091883 -0.00265,1.8970812 -0.00347,1.9851341 -0.018635,2.0074454 -0.037641,0.055444 0.023622,0.052176 -1.0966892,0.058506 l -1.0188615,0.00575 0.2838784,0.2743115 0.2838784,0.2743108 v 0.089463 c 0,0.1030037 -0.00853,0.1226479 -0.059387,0.1367722 -0.049701,0.013804 -2.7731919,0.011583 -2.8137477,-0.00228 z M 4.185072,6.7630073 C 4.247402,6.7393123 4.278748,6.6389519 4.24468,6.5721736 4.188128,6.4613222 4.0222152,6.4797526 3.9905297,6.6004076 c -0.015854,0.06036 0.00673,0.1210091 0.057522,0.1545002 0.026977,0.01779 0.100163,0.022113 0.1370191,0.00811 z"
   id="path6" /></svg>
