<?xml version="1.0" encoding="UTF-8" standalone="no"?>
<!-- Uploaded to: SVG Repo, www.svgrepo.com, Generator: SVG Repo Mixer Tools -->

<svg
   fill="#000000"
   height="800px"
   width="800px"
   version="1.1"
   id="Capa_1"
   viewBox="0 0 330 330"
   xml:space="preserve"
   sodipodi:docname="copy.svg"
   inkscape:version="1.3.2 (091e20e, 2023-11-25, custom)"
   xmlns:inkscape="http://www.inkscape.org/namespaces/inkscape"
   xmlns:sodipodi="http://sodipodi.sourceforge.net/DTD/sodipodi-0.dtd"
   xmlns="http://www.w3.org/2000/svg"
   xmlns:svg="http://www.w3.org/2000/svg"><defs
   id="defs4" /><sodipodi:namedview
   id="namedview4"
   pagecolor="#ffffff"
   bordercolor="#000000"
   borderopacity="0.25"
   inkscape:showpageshadow="2"
   inkscape:pageopacity="0.0"
   inkscape:pagecheckerboard="0"
   inkscape:deskcolor="#d1d1d1"
   inkscape:zoom="1.017006"
   inkscape:cx="400.19431"
   inkscape:cy="400.19431"
   inkscape:window-width="1920"
   inkscape:window-height="1010"
   inkscape:window-x="1699"
   inkscape:window-y="-6"
   inkscape:window-maximized="1"
   inkscape:current-layer="Capa_1" />
<g
   id="g4"
   style="fill:#153854;fill-opacity:1">
	<path
   d="M35,270h45v45c0,8.284,6.716,15,15,15h200c8.284,0,15-6.716,15-15V75c0-8.284-6.716-15-15-15h-45V15   c0-8.284-6.716-15-15-15H35c-8.284,0-15,6.716-15,15v240C20,263.284,26.716,270,35,270z M280,300H110V90h170V300z M50,30h170v30H95   c-8.284,0-15,6.716-15,15v165H50V30z"
   id="path1"
   style="fill:#153854;fill-opacity:1" />
	<path
   d="M155,120c-8.284,0-15,6.716-15,15s6.716,15,15,15h80c8.284,0,15-6.716,15-15s-6.716-15-15-15H155z"
   id="path2"
   style="fill:#153854;fill-opacity:1" />
	<path
   d="M235,180h-80c-8.284,0-15,6.716-15,15s6.716,15,15,15h80c8.284,0,15-6.716,15-15S243.284,180,235,180z"
   id="path3"
   style="fill:#153854;fill-opacity:1" />
	<path
   d="M235,240h-80c-8.284,0-15,6.716-15,15c0,8.284,6.716,15,15,15h80c8.284,0,15-6.716,15-15C250,246.716,243.284,240,235,240z   "
   id="path4"
   style="fill:#153854;fill-opacity:1" />
</g>
</svg>
