<svg width="48" height="48" viewBox="0 0 48 48" fill="none" xmlns="http://www.w3.org/2000/svg">
<circle cx="24" cy="24" r="24" fill="#DCDCDC"/>
<mask id="mask0_0_1" style="mask-type:alpha" maskUnits="userSpaceOnUse" x="8" y="8" width="32" height="32">
<rect x="8.40039" y="8.40039" width="31.2" height="31.2" fill="#D9D9D9"/>
</mask>
<g mask="url(#mask0_0_1)">
<path d="M23.9994 23.8703C22.6131 23.8703 21.4431 23.3883 20.4894 22.4242C19.5357 21.4591 19.0589 20.2943 19.0589 18.9298C19.0589 17.5435 19.5357 16.3735 20.4894 15.4198C21.4431 14.4661 22.6131 13.9893 23.9994 13.9893C25.3857 13.9893 26.5557 14.4661 27.5094 15.4198C28.4631 16.3735 28.9399 17.5435 28.9399 18.9298C28.9399 20.2943 28.4631 21.4591 27.5094 22.4242C26.5557 23.3883 25.3857 23.8703 23.9994 23.8703ZM14.3789 33.7498V30.3693C14.3789 29.8066 14.5255 29.2866 14.8188 28.8093C15.1111 28.3329 15.5172 27.932 16.0372 27.6065C17.2498 26.892 18.5337 26.3507 19.8888 25.9825C21.2429 25.6144 22.6131 25.4303 23.9994 25.4303C25.3857 25.4303 26.7559 25.6144 28.11 25.9825C29.4651 26.3507 30.749 26.8816 31.9617 27.5753C32.4817 27.8779 32.8878 28.2783 33.18 28.7765C33.4733 29.2757 33.6199 29.8066 33.6199 30.3693V33.7498H14.3789ZM17.0761 31.0525H30.9227V30.402C30.9227 30.2939 30.8899 30.1966 30.8244 30.1103C30.7589 30.0229 30.6721 29.9579 30.5639 29.9153C29.6113 29.3079 28.577 28.8581 27.4611 28.5659C26.3451 28.2737 25.1913 28.1275 23.9994 28.1275C22.8076 28.1275 21.6537 28.2737 20.5378 28.5659C19.4219 28.8581 18.3876 29.3079 17.4349 29.9153C17.3268 29.9798 17.2399 30.05 17.1744 30.1259C17.1089 30.2018 17.0761 30.2939 17.0761 30.402V31.0525ZM23.9994 21.1731C24.6276 21.1731 25.1585 20.9505 25.5922 20.5054C26.0259 20.0613 26.2427 19.5361 26.2427 18.9298C26.2427 18.3016 26.0201 17.7707 25.575 17.337C25.1309 16.9033 24.6057 16.6865 23.9994 16.6865C23.3713 16.6865 22.8403 16.9091 22.4067 17.3542C21.973 17.7983 21.7561 18.3235 21.7561 18.9298C21.7561 19.5579 21.9787 20.0889 22.4238 20.5225C22.8679 20.9562 23.3931 21.1731 23.9994 21.1731Z" fill="#A5A5A5"/>
</g>
</svg>
