<svg width="14" height="12" viewBox="0 0 14 12" fill="none" xmlns="http://www.w3.org/2000/svg">
<path d="M1.78242 11.9663C1.33815 11.9663 0.963219 11.8135 0.657619 11.5079C0.352019 11.2028 0.199219 10.8279 0.199219 10.3831V2.54951C0.199219 2.11644 0.352019 1.74444 0.657619 1.43351C0.963219 1.12204 1.33815 0.966309 1.78242 0.966309H5.53282L6.99922 2.43351H12.216C12.6603 2.43351 13.0352 2.58631 13.3408 2.89191C13.6464 3.19698 13.7992 3.57191 13.7992 4.01671V10.3831C13.7992 10.8279 13.6464 11.2028 13.3408 11.5079C13.0352 11.8135 12.6603 11.9663 12.216 11.9663H1.78242ZM1.78242 2.54951V10.3831H12.216V4.01671H6.33282L4.88242 2.54951H1.78242Z" fill="#3879B4"/>
</svg>
