<svg width="14" height="11" viewBox="0 0 14 11" fill="none" xmlns="http://www.w3.org/2000/svg">
<path d="M0.482422 10.5V8.8336C0.482422 8.52213 0.557355 8.236 0.707222 7.9752C0.857622 7.71387 1.06616 7.50533 1.33282 7.3496C1.94349 6.9832 2.59069 6.7056 3.27442 6.5168C3.95762 6.328 4.67149 6.2336 5.41602 6.2336C6.16056 6.2336 6.87442 6.328 7.55762 6.5168C8.24082 6.7056 8.88242 6.97787 9.48242 7.3336C9.74909 7.4888 9.96029 7.69707 10.116 7.9584C10.2718 8.2192 10.3496 8.51093 10.3496 8.8336V10.5H0.482422ZM11.5992 10.5V8.8336C11.5992 8.35573 11.4936 7.9112 11.2824 7.5C11.0712 7.0888 10.7768 6.73333 10.3992 6.4336C10.8104 6.53333 11.2078 6.65547 11.5912 6.8C11.9742 6.94453 12.3435 7.1224 12.6992 7.3336C12.9547 7.4776 13.1547 7.68587 13.2992 7.9584C13.4438 8.2304 13.516 8.52773 13.516 8.8504V10.5H11.5992ZM5.41602 5.4336C4.72695 5.4336 4.14349 5.19467 3.66562 4.7168C3.18829 4.23893 2.94962 3.65547 2.94962 2.9664C2.94962 2.27787 3.18829 1.69467 3.66562 1.2168C4.14349 0.738933 4.72695 0.5 5.41602 0.5C6.10456 0.5 6.68776 0.738933 7.16562 1.2168C7.64349 1.69467 7.88242 2.27787 7.88242 2.9664C7.88242 3.65547 7.64349 4.23893 7.16562 4.7168C6.68776 5.19467 6.10456 5.4336 5.41602 5.4336ZM11.1992 2.9664C11.1992 3.65547 10.9603 4.23893 10.4824 4.7168C10.0046 5.19467 9.42136 5.4336 8.73282 5.4336C8.64375 5.4336 8.56322 5.43067 8.49122 5.4248C8.41869 5.41947 8.33256 5.4 8.23282 5.3664C8.51015 5.04427 8.72962 4.68053 8.89122 4.2752C9.05229 3.86933 9.13282 3.43307 9.13282 2.9664C9.13282 2.49973 9.05229 2.06373 8.89122 1.6584C8.72962 1.25307 8.51015 0.889067 8.23282 0.5664C8.32136 0.533333 8.40456 0.513867 8.48242 0.508C8.56029 0.502667 8.64375 0.5 8.73282 0.5C9.42136 0.5 10.0046 0.738933 10.4824 1.2168C10.9603 1.69467 11.1992 2.27787 11.1992 2.9664ZM1.86562 9.1168H8.96562V8.8504C8.96562 8.7832 8.94909 8.7192 8.91602 8.6584C8.88242 8.59707 8.83789 8.55547 8.78242 8.5336C8.27149 8.23333 7.73256 8.0056 7.16562 7.8504C6.59922 7.69467 6.01602 7.6168 5.41602 7.6168C4.81602 7.6168 4.22989 7.69173 3.65762 7.8416C3.08536 7.99147 2.54909 8.22213 2.04882 8.5336C1.99336 8.55547 1.94909 8.5944 1.91602 8.6504C1.88242 8.70587 1.86562 8.77253 1.86562 8.8504V9.1168ZM5.41602 4.1168C5.72695 4.1168 5.99362 4.00293 6.21602 3.7752C6.43842 3.54747 6.54962 3.27787 6.54962 2.9664C6.54962 2.64427 6.43842 2.37227 6.21602 2.1504C5.99362 1.928 5.72695 1.8168 5.41602 1.8168C5.09389 1.8168 4.82162 1.93067 4.59922 2.1584C4.37682 2.38613 4.26562 2.65547 4.26562 2.9664C4.26562 3.27787 4.37949 3.54747 4.60722 3.7752C4.83549 4.00293 5.10509 4.1168 5.41602 4.1168Z" fill="#3879B4"/>
</svg>
