<svg width="20" height="14" viewBox="0 0 20 14" fill="none" xmlns="http://www.w3.org/2000/svg">
<path d="M9.41797 6.83301C9.82064 6.40301 10.1226 5.92034 10.324 5.38501C10.5253 4.85034 10.626 4.30534 10.626 3.75001C10.626 3.18067 10.5216 2.63201 10.313 2.10401C10.105 1.57601 9.80664 1.09001 9.41797 0.646008C9.52864 0.618008 9.63264 0.600675 9.72997 0.594008C9.8273 0.586675 9.93164 0.583008 10.043 0.583008C10.9316 0.611008 11.6676 0.934008 12.251 1.55201C12.8343 2.17001 13.126 2.90267 13.126 3.75001C13.126 4.59734 12.831 5.33001 12.241 5.94801C11.6503 6.56601 10.9176 6.88201 10.043 6.89601C9.93164 6.89601 9.82397 6.89234 9.71997 6.88501C9.6153 6.87834 9.51464 6.86101 9.41797 6.83301ZM13.626 13.25V11.188C13.626 10.5767 13.494 10.014 13.23 9.50001C12.966 8.98601 12.591 8.54867 12.105 8.18801C13.119 8.39601 14.0566 8.71167 14.918 9.13501C15.7786 9.55901 16.209 10.2433 16.209 11.188V13.25H13.626ZM16.439 7.87501V6.10401H14.668V4.60401H16.439V2.85401H17.939V4.60401H19.709V6.10401H17.939V7.87501H16.439ZM5.95897 6.91701C5.0703 6.91701 4.3203 6.60801 3.70897 5.99001C3.0983 5.37134 2.79297 4.62467 2.79297 3.75001C2.79297 2.86134 3.0983 2.11134 3.70897 1.50001C4.3203 0.888675 5.0703 0.583008 5.95897 0.583008C6.8483 0.583008 7.5983 0.888675 8.20897 1.50001C8.8203 2.11134 9.12597 2.86134 9.12597 3.75001C9.12597 4.62467 8.8203 5.37134 8.20897 5.99001C7.5983 6.60801 6.8483 6.91701 5.95897 6.91701ZM-0.207031 13.25V11.167C-0.207031 10.7777 -0.113365 10.4233 0.0739688 10.104C0.261302 9.78467 0.521635 9.52067 0.854969 9.31201C1.61897 8.82601 2.43497 8.47201 3.30297 8.25001C4.17097 8.02801 5.0563 7.91701 5.95897 7.91701C6.86164 7.91701 7.7403 8.03501 8.59497 8.27101C9.44897 8.50701 10.2716 8.84734 11.063 9.29201C11.383 9.50001 11.64 9.76734 11.834 10.094C12.0286 10.42 12.126 10.7777 12.126 11.167V13.25H-0.207031ZM5.95897 5.18801C6.3483 5.18801 6.6853 5.04901 6.96997 4.77101C7.25464 4.49301 7.39697 4.15267 7.39697 3.75001C7.39697 3.36134 7.25464 3.02467 6.96997 2.74001C6.6853 2.45467 6.3483 2.31201 5.95897 2.31201C5.5563 2.31201 5.2163 2.45467 4.93897 2.74001C4.66097 3.02467 4.52197 3.36134 4.52197 3.75001C4.52197 4.15267 4.66097 4.49301 4.93897 4.77101C5.2163 5.04901 5.5563 5.18801 5.95897 5.18801ZM1.52197 11.521H10.397V11.188C10.397 11.104 10.376 11.0273 10.334 10.958C10.2926 10.8887 10.2373 10.8333 10.168 10.792C9.5153 10.4307 8.83797 10.1493 8.13597 9.94801C7.43464 9.74667 6.70897 9.64601 5.95897 9.64601C5.19497 9.64601 4.45897 9.74334 3.75097 9.93801C3.04297 10.132 2.3763 10.4167 1.75097 10.792C1.68164 10.8333 1.62597 10.8887 1.58397 10.958C1.54264 11.0273 1.52197 11.104 1.52197 11.188V11.521Z" fill="#3879B4"/>
</svg>
