<svg width="18" height="18" viewBox="0 0 18 18" fill="none" xmlns="http://www.w3.org/2000/svg">
<path d="M8.97998 14C9.27198 14 9.52198 13.896 9.72998 13.688C9.93865 13.4793 10.043 13.2293 10.043 12.938C10.043 12.646 9.93865 12.3993 9.72998 12.198C9.52198 11.9967 9.27198 11.896 8.97998 11.896C8.68865 11.896 8.44232 11.9967 8.24098 12.198C8.03965 12.3993 7.93898 12.646 7.93898 12.938C7.93898 13.2293 8.03965 13.4793 8.24098 13.688C8.44232 13.896 8.68865 14 8.97998 14ZM8.18898 10.812H9.79298C9.79298 10.312 9.84165 9.95101 9.93898 9.72901C10.0357 9.50701 10.2437 9.23634 10.563 8.91701C11.0497 8.45834 11.3867 8.06234 11.574 7.72901C11.7613 7.39567 11.855 7.02067 11.855 6.60401C11.855 5.82667 11.5947 5.19834 11.074 4.71901C10.5533 4.23967 9.88998 4.00001 9.08398 4.00001C8.37598 4.00001 7.75098 4.19434 7.20898 4.58301C6.66765 4.97234 6.29265 5.49334 6.08398 6.14601L7.54298 6.75001C7.66765 6.36134 7.86198 6.05934 8.12598 5.84401C8.38998 5.62867 8.68865 5.52101 9.02198 5.52101C9.36932 5.52101 9.66098 5.62501 9.89698 5.83301C10.133 6.04167 10.251 6.31267 10.251 6.64601C10.251 6.95134 10.147 7.22567 9.93898 7.46901C9.73032 7.71167 9.50098 7.94434 9.25098 8.16701C8.77898 8.59701 8.48398 8.96134 8.36598 9.26001C8.24798 9.55867 8.18898 10.076 8.18898 10.812ZM9.00098 17.167C7.87565 17.167 6.81665 16.955 5.82398 16.531C4.83065 16.1077 3.96265 15.5243 3.21998 14.781C2.47665 14.0383 1.89332 13.1703 1.46998 12.177C1.04598 11.1843 0.833984 10.1253 0.833984 9.00001C0.833984 7.86134 1.04598 6.79901 1.46998 5.81301C1.89332 4.82634 2.47665 3.96167 3.21998 3.21901C3.96265 2.47567 4.83065 1.89234 5.82398 1.46901C6.81665 1.04501 7.87565 0.833008 9.00098 0.833008C10.1397 0.833008 11.2023 1.04501 12.189 1.46901C13.175 1.89234 14.0393 2.47567 14.782 3.21901C15.5253 3.96167 16.1087 4.82634 16.532 5.81301C16.956 6.79901 17.168 7.86134 17.168 9.00001C17.168 10.1253 16.956 11.1843 16.532 12.177C16.1087 13.1703 15.5253 14.0383 14.782 14.781C14.0393 15.5243 13.175 16.1077 12.189 16.531C11.2023 16.955 10.1397 17.167 9.00098 17.167ZM9.00098 15.438C10.793 15.438 12.3137 14.8127 13.563 13.562C14.8137 12.3127 15.439 10.792 15.439 9.00001C15.439 7.20801 14.8137 5.68734 13.563 4.43801C12.3137 3.18734 10.793 2.56201 9.00098 2.56201C7.20898 2.56201 5.68832 3.18734 4.43898 4.43801C3.18832 5.68734 2.56298 7.20801 2.56298 9.00001C2.56298 10.792 3.18832 12.3127 4.43898 13.562C5.68832 14.8127 7.20898 15.438 9.00098 15.438Z" fill="#4F4F4F"/>
</svg>
