<?xml version="1.0" encoding="UTF-8" standalone="no"?>
<!-- Uploaded to: SVG Repo, www.svgrepo.com, Generator: SVG Repo Mixer Tools -->

<svg
   width="16"
   height="16"
   viewBox="0 0 0.48 0.48"
   fill="none"
   version="1.1"
   id="svg4"
   sodipodi:docname="keyicons.svg"
   inkscape:version="1.1.1 (3bf5ae0d25, 2021-09-20)"
   xmlns:inkscape="http://www.inkscape.org/namespaces/inkscape"
   xmlns:sodipodi="http://sodipodi.sourceforge.net/DTD/sodipodi-0.dtd"
   xmlns="http://www.w3.org/2000/svg"
   xmlns:svg="http://www.w3.org/2000/svg">
  <defs
     id="defs8" />
  <sodipodi:namedview
     id="namedview6"
     pagecolor="#505050"
     bordercolor="#eeeeee"
     borderopacity="1"
     inkscape:pageshadow="0"
     inkscape:pageopacity="0"
     inkscape:pagecheckerboard="0"
     showgrid="false"
     inkscape:zoom="16.04"
     inkscape:cx="11.658354"
     inkscape:cy="17.674564"
     inkscape:window-width="1920"
     inkscape:window-height="991"
     inkscape:window-x="-9"
     inkscape:window-y="-9"
     inkscape:window-maximized="1"
     inkscape:current-layer="svg4" />
  <path
     fill-rule="evenodd"
     clip-rule="evenodd"
     d="m 0.16215014,0.05363685 c 0.003606,-0.0036059 0.008498,-0.0056319 0.0135972,-0.0056319 h 0.15382821 c 0.03186,0 0.0576853,0.0258275 0.0576853,0.05768534 v 0.096143 c 0,0.0106222 -0.008607,0.0192288 -0.0192288,0.0192288 -0.0106222,0 -0.0192288,-0.008607 -0.0192288,-0.0192288 v -0.096143 c 0,-0.01062188 -0.008607,-0.01922882 -0.0192288,-0.01922882 H 0.19497599 v 0.09614299 c 0,0.0106222 -0.008607,0.0192288 -0.0192288,0.0192288 H 0.07960466 v 0.21151369 c 0,0.0106222 0.0086069,0.0192288 0.01922881,0.0192288 h 0.0576853 c 0.0106222,0 0.0192288,0.008607 0.0192288,0.0192288 0,0.0106222 -0.008607,0.0192288 -0.0192288,0.0192288 H 0.09883267 C 0.06697394,0.47103236 0.0411471,0.44520655 0.0411471,0.41334675 v -0.2307421 c 0,-0.005102 0.0020258,-0.009987 0.0056285,-0.0135972 z m -0.0553529,0.10973926 h 0.0497212 v -0.0497212 z m 0.2189378,0.14145278 c 0.005322,-0.009133 0.002267,-0.0208571 -0.006833,-0.0262359 l -0.0491791,-0.0290523 c -0.0144644,-0.008541 -0.0328008,-0.006712 -0.0452874,0.004522 l -0.0307639,0.0276868 c -0.0132483,0.011924 -0.0165668,0.0313869 -0.008027,0.0470274 l 0.0292078,0.0534475 c 0.005191,0.009505 0.0171998,0.0128447 0.0265525,0.007392 l 0.0208002,-0.0121174 c 0.008234,-0.004797 0.0187459,-0.002836 0.0246996,0.00461 l 0.0176772,0.0221109 0.003537,-0.00277 c 0.004019,-0.003143 0.009121,-0.004556 0.0141873,-0.003931 0.005059,6.2418e-4 0.009669,0.00323 0.0128083,0.00726 l 0.0221373,0.0283713 c 0.009396,0.0120361 0.0283931,0.008848 0.0333483,-0.005584 l 0.001872,-0.005464 -0.0760895,-0.0716722 c -0.006515,-0.006132 -0.007927,-0.0159481 -0.003428,-0.0236758 z m 0.012727,-0.0593453 c 0.0273124,0.0161342 0.0364713,0.0512958 0.0204991,0.0787067 l -0.005081,0.008716 0.0739948,0.0697011 c 0.005497,0.005179 0.007457,0.0130941 0.005004,0.0202373 l -0.005902,0.0171921 c -0.014864,0.043324 -0.0718627,0.0528771 -0.10004014,0.0167672 l -0.0103041,-0.0132062 -0.003362,0.002628 c -0.0083,0.006483 -0.0202746,0.005081 -0.0268525,-0.003153 l -0.0191883,-0.0239977 -0.00646,0.003767 c -0.0280624,0.01635 -0.0640869,0.006319 -0.0796616,-0.02218 L 0.1519027,0.34721459 C 0.1348092,0.31593599 0.1414445,0.27700969 0.1679438,0.25316209 l 0.030765,-0.0276868 c 0.0249734,-0.0224778 0.0616461,-0.0261417 0.0905737,-0.009055 z m -0.0954158,0.0909492 c 0.0159283,0 0.0288432,-0.0129133 0.0288432,-0.0288421 0,-0.0159283 -0.0129133,-0.0288421 -0.0288432,-0.0288421 -0.0159283,0 -0.0288421,0.0129133 -0.0288421,0.0288421 0,0.0159283 0.0129133,0.0288421 0.0288421,0.0288421 z"
     fill="#000000"
     id="path2"
     style="fill:#3879b4;fill-opacity:1;stroke-width:0.0192285" />
</svg>
