<?xml version="1.0" encoding="UTF-8" standalone="no"?>
<svg
   width="16"
   height="16"
   viewBox="0 0 16 16"
   version="1.1"
   id="svg8"
   sodipodi:docname="Keyicons.svg"
   inkscape:version="1.1.1 (3bf5ae0d25, 2021-09-20)"
   xmlns:inkscape="http://www.inkscape.org/namespaces/inkscape"
   xmlns:sodipodi="http://sodipodi.sourceforge.net/DTD/sodipodi-0.dtd"
   xmlns="http://www.w3.org/2000/svg"
   xmlns:svg="http://www.w3.org/2000/svg"
   xmlns:rdf="http://www.w3.org/1999/02/22-rdf-syntax-ns#"
   xmlns:cc="http://creativecommons.org/ns#"
   xmlns:dc="http://purl.org/dc/elements/1.1/">
  <defs
     id="defs12" />
  <sodipodi:namedview
     id="namedview10"
     pagecolor="#505050"
     bordercolor="#eeeeee"
     borderopacity="1"
     inkscape:pageshadow="0"
     inkscape:pageopacity="0"
     inkscape:pagecheckerboard="0"
     showgrid="false"
     inkscape:zoom="22.627417"
     inkscape:cx="11.976621"
     inkscape:cy="8.5957668"
     inkscape:window-width="1920"
     inkscape:window-height="991"
     inkscape:window-x="-9"
     inkscape:window-y="-9"
     inkscape:window-maximized="1"
     inkscape:current-layer="svg8" />
  <title
     id="title2">Keyicons</title>
  <g
     id="Page-1"
     stroke="none"
     stroke-width="1"
     fill="none"
     fill-rule="evenodd" />
  <metadata
     id="metadata829">
    <rdf:RDF>
      <cc:Work
         rdf:about="">
        <dc:title>Keyicons</dc:title>
      </cc:Work>
    </rdf:RDF>
  </metadata>
  <path
     style="fill:#3879b4;fill-opacity:1;stroke:none;stroke-width:0.0229207"
     d="M 3.5413655,12.180601 4.2609229,8.6729086 4.0772663,8.4859705 C 3.6585925,8.0598166 3.372736,7.6049522 3.1911102,7.0758884 2.4139454,4.8120588 3.9596662,2.4285947 6.3979728,2.1309848 c 0.3172271,-0.038719 0.9088968,-0.016193 1.2104282,0.046084 1.2222938,0.252449 2.2129108,1.0089036 2.741564,2.0935147 0.551238,1.130944 0.475711,2.5067899 -0.19544,3.5602538 C 9.9938068,8.0831064 9.8509878,8.2617164 9.6306708,8.48597 l -0.183657,0.1869381 0.7195572,3.5076929 0.719557,3.507693 H 6.8539684 2.8218081 Z m 5.4714393,1.985466 c 0,-0.01569 -0.276802,-1.377651 -0.6151163,-3.026576 C 8.0593746,9.4905668 7.7799448,8.1162825 7.7767334,8.0855255 7.7716912,8.0375926 7.8073585,8.0052051 8.0261517,7.8587906 8.5027252,7.5398745 8.8254518,7.1813682 8.9999688,6.7770092 9.2726218,6.1452644 9.2526548,5.4710986 8.9431608,4.859009 8.674083,4.3268526 8.1947385,3.914319 7.6261003,3.7255206 7.3432078,3.6315952 7.1644018,3.6032896 6.8539684,3.6032896 c -0.3104333,0 -0.4892394,0.028306 -0.7721319,0.122231 C 5.5137282,3.9141431 5.0358397,4.3251629 4.7639428,4.859009 4.3081156,5.7539859 4.4973263,6.822188 5.233117,7.5077645 c 0.1063769,0.099116 0.3082768,0.2570775 0.4486681,0.3510261 0.2187956,0.1464145 0.254424,0.178802 0.2494183,0.2267349 -0.00318,0.030758 -0.2826411,1.4050413 -0.6209551,3.0539655 -0.3383148,1.648925 -0.6151165,3.010884 -0.6151165,3.026576 0,0.02275 0.4374677,0.02853 2.1588366,0.02853 1.7213688,0 2.1588364,-0.0057 2.1588364,-0.02853 z"
     id="path998" />
</svg>
