<svg xmlns="http://www.w3.org/2000/svg" xml:space="preserve" width="800" height="800" fill="#215684" stroke="#215684" viewBox="0 0 305.406 305.406"><path d="M77.202 127.888a9 9 0 0 0 9 9h130.575c4.971 0 9-4.029 9-9s-4.029-9-9-9H86.202a9 9 0 0 0-9 9zM86.202 168.538h130.575a9 9 0 0 0 9-9 9 9 0 0 0-9-9H86.202a9 9 0 0 0-9 9 9 9 0 0 0 9 9zM86.202 60.538h44.341a9 9 0 0 0 9-9 9 9 0 0 0-9-9H86.202a9 9 0 0 0-9 9 9 9 0 0 0 9 9zM149.503 242.374H86.202a9 9 0 0 0-9 9 9 9 0 0 0 9 9h63.301c4.971 0 9-4.029 9-9s-4.029-9-9-9zM149.503 214.512H86.202a9 9 0 0 0-9 9 9 9 0 0 0 9 9h63.301a9 9 0 0 0 9-9 9 9 0 0 0-9-9z"/><path d="M267.067 70.613 199.091 2.636A9.003 9.003 0 0 0 192.727 0H44.703a9 9 0 0 0-9 9v287.406a9 9 0 0 0 9 9h216a9 9 0 0 0 9-9V76.977a9 9 0 0 0-2.636-6.364zm-67.34-41.885 41.249 41.249h-41.249V28.728zm51.976 258.678h-198V18h128.023v60.977a9 9 0 0 0 9 9h60.977v199.429z"/><path d="M199.976 208.512c-16.078 0-29.158 13.081-29.158 29.159s13.08 29.158 29.158 29.158 29.158-13.08 29.158-29.158-13.08-29.159-29.158-29.159zm0 40.317c-6.152 0-11.158-5.005-11.158-11.158s5.006-11.159 11.158-11.159c6.152 0 11.158 5.006 11.158 11.159 0 6.153-5.006 11.158-11.158 11.158z"/></svg>
