<svg width="350" height="270" xmlns="http://www.w3.org/2000/svg" xmlns:xlink="http://www.w3.org/1999/xlink">
 <!-- Created with SVG Editor - http://github.com/mzalive/SVG Editor/ -->
 <defs>
  <symbol id="svg_22" viewBox="0 0 210 297" height="297mm" width="210mm">
   <defs>
    <clipPath id="svg_14">
     <rect id="svg_21" transform="translate(20 7)" fill="white" height="36" width="184.091"/>
    </clipPath>
    <clipPath id="svg_16"/>
   </defs>
   <g display="inline" id="svg_2">
    <g fill="none" transform="matrix(0.40565921,0,0,0.59046862,41.003,158.27226)" id="svg_11">
     <g id="svg_15" clip-path="url(#svg_16)">
      <mask height="20" width="20" y="16" x="280" maskUnits="userSpaceOnUse" id="svg_18">
       <rect id="svg_20" fill="#d9d9d9" height="20" width="20" y="16" x="280"/>
      </mask>
      <g id="svg_17" mask="url(#svg_18)">
       <path id="svg_19" fill="#ffffff" d="m290,28.167l-4.271,-4.292l8.542,0l-4.271,4.292z"/>
      </g>
     </g>
     <g transform="matrix(1.0855936,0,0,0.98027644,-1.868984,-0.76380493)" id="svg_12">
      <g transform="translate(1.8257896,-48.605673)" id="svg_13" clip-path="url(#svg_14)"/>
     </g>
    </g>
    <g fill="none" transform="matrix(4.1208296,0,0,4.7257131,-72.920943,-34.538011)" id="svg_3">
     <path stroke="#cccccc" stroke-width="1.00034" id="svg_10" fill="#cccccc" d="m58.739718,35.516899c-0.431092,0.334218 -0.773109,0.731395 -1.00656,1.168837c-0.233338,0.43753 -0.353464,0.906584 -0.353464,1.380317c0,0.473822 0.120126,0.942876 0.353464,1.380317c0.233451,0.437443 0.575468,0.834707 1.00656,1.168837c0.872723,0.677002 2.054145,1.057048 3.285657,1.057048c1.231626,0 2.412935,-0.380046 3.285771,-1.057048c0.431092,-0.33413 0.773109,-0.731394 1.00656,-1.168837c0.233338,-0.437441 0.353464,-0.906495 0.353464,-1.380317c0,-0.473733 -0.120126,-0.942787 -0.353464,-1.380317c-0.233451,-0.437442 -0.575468,-0.834619 -1.00656,-1.168837c-0.872836,-0.676914 -2.054145,-1.05696 -3.285771,-1.05696c-1.231512,0 -2.412934,0.380046 -3.285657,1.05696z"/>
     <path stroke="#cccccc" stroke-width="1.00034" id="svg_9" fill="#cccccc" d="m39.988817,10.937168c-0.430979,0.334139 -0.772996,0.73136 -1.006447,1.168828c-0.233338,0.437433 -0.353464,0.906575 -0.353464,1.380309c0,0.473733 0.120126,0.942875 0.353464,1.380316c0.233451,0.437443 0.575468,0.834707 1.006447,1.168837c0.872836,0.676914 2.054258,1.057049 3.285771,1.057049c1.231625,0 2.412934,-0.380135 3.28577,-1.057049c0.431092,-0.33413 0.773109,-0.731394 1.006561,-1.168837c0.233338,-0.437441 0.353463,-0.906583 0.353463,-1.380316c0,-0.473734 -0.120125,-0.942876 -0.353463,-1.380309c-0.233452,-0.437468 -0.575469,-0.834689 -1.006561,-1.168828c-0.872836,-0.676967 -2.054145,-1.057013 -3.28577,-1.057013c-1.231513,0 -2.412935,0.380046 -3.285771,1.057013z"/>
     <path stroke="#cccccc" stroke-width="1.00034" id="svg_8" fill="#cccccc" d="m39.988817,26.957642c-0.430979,0.33413 -0.772996,0.731307 -1.006447,1.168838c-0.233338,0.437442 -0.353464,0.906495 -0.353464,1.380317c0,0.473734 0.120126,0.942787 0.353464,1.380317c0.233451,0.437442 0.575468,0.834619 1.006447,1.168749c0.872836,0.677002 2.054258,1.057048 3.285771,1.057048c1.231625,0 2.412934,-0.380046 3.28577,-1.057048c0.431092,-0.33413 0.773109,-0.731307 1.006561,-1.168749c0.233338,-0.43753 0.353463,-0.906583 0.353463,-1.380317c0,-0.473822 -0.120125,-0.942875 -0.353463,-1.380317c-0.233452,-0.437531 -0.575469,-0.834708 -1.006561,-1.168838c-0.872836,-0.677001 -2.054145,-1.057048 -3.28577,-1.057048c-1.231513,0 -2.412935,0.380047 -3.285771,1.057048z"/>
     <path stroke="#cccccc" stroke-width="1.00034" id="svg_7" fill="#cccccc" d="m21.360194,35.517252c-0.646298,0.505875 -1.085662,1.149499 -1.262904,1.849812c-0.177128,0.700313 -0.08409,1.425792 0.267449,2.084958c0.351538,0.659076 0.945705,1.222347 1.707708,1.618552c0.76189,0.396205 1.657504,0.607598 2.573518,0.607598c0.916126,0 1.811628,-0.211393 2.573518,-0.607598c0.762002,-0.396205 1.356284,-0.959476 1.707821,-1.618552c0.351536,-0.659166 0.444577,-1.384645 0.267336,-2.084958c-0.177129,-0.700313 -0.616606,-1.343937 -1.262905,-1.849812c-0.429844,-0.338545 -0.941511,-0.607245 -1.505534,-0.790645c-0.564023,-0.183489 -1.16907,-0.277883 -1.780236,-0.277883c-0.611167,0 -1.216213,0.09439 -1.780236,0.277883c-0.564024,0.1834 -1.07569,0.4521 -1.505535,0.790645z"/>
     <path fill="#cccccc" id="svg_6" stroke-linecap="square" stroke-miterlimit="10" stroke-width="3.00101" stroke="#cccccc" d="m58.20108,31.849504l-9.478011,-12.792659"/>
     <path fill="#cccccc" id="svg_5" stroke-linecap="square" stroke-miterlimit="10" stroke-width="3.00101" stroke="#cccccc" d="m33.759406,38.986235l19.154568,0"/>
     <path fill="#cccccc" id="svg_4" stroke-linecap="square" stroke-miterlimit="10" stroke-width="3.00101" stroke="#cccccc" d="m37.587101,19.056845l-9.293742,12.544092"/>
    </g>
   </g>
  </symbol>
 </defs>
 <g>
  <title>background</title>
  <rect fill="#fff" id="canvas_background" height="272" width="352" y="-1" x="-1"/>
 </g>
 <g>
  <title>Layer 1</title>
  <use stroke-width="0" x="-9.311359" y="-31.185" transform="matrix(0.44893378019332886,0,0,0.44893378019332886,0,0) " xlink:href="#svg_22" id="svg_23"/>
 </g>
</svg>