<?xml version="1.0" encoding="UTF-8" standalone="no"?>
<!-- Created with Inkscape (http://www.inkscape.org/) -->

<svg
   width="400"
   height="325"
   viewBox="0 0 105.83334 85.989589"
   version="1.1"
   id="svg5"
   inkscape:version="1.1.1 (3bf5ae0d25, 2021-09-20)"
   sodipodi:docname="logo.svg"
   xmlns:inkscape="http://www.inkscape.org/namespaces/inkscape"
   xmlns:sodipodi="http://sodipodi.sourceforge.net/DTD/sodipodi-0.dtd"
   xmlns="http://www.w3.org/2000/svg"
   xmlns:svg="http://www.w3.org/2000/svg">
  <sodipodi:namedview
     id="namedview7"
     pagecolor="#505050"
     bordercolor="#eeeeee"
     borderopacity="1"
     inkscape:pageshadow="0"
     inkscape:pageopacity="0"
     inkscape:pagecheckerboard="0"
     inkscape:document-units="px"
     showgrid="false"
     inkscape:zoom="0.82106903"
     inkscape:cx="331.27543"
     inkscape:cy="364.76835"
     inkscape:window-width="1920"
     inkscape:window-height="991"
     inkscape:window-x="-9"
     inkscape:window-y="-9"
     inkscape:window-maximized="1"
     inkscape:current-layer="layer1"
     units="px" />
  <defs
     id="defs2">
    <clipPath
       id="clip0_260_6587">
      <rect
         width="184.091"
         height="36"
         fill="#ffffff"
         transform="translate(20,7)"
         id="rect879"
         x="0"
         y="0" />
    </clipPath>
    <clipPath
       id="clip1_260_6587" />
  </defs>
  <g
     inkscape:label="Слой 1"
     inkscape:groupmode="layer"
     id="layer1"
     style="display:inline">
    <g
       style="fill:none"
       id="g920"
       transform="matrix(0.40565921,0,0,0.59046862,41.003,158.27226)">
      <g
         clip-path="url(#clip1_260_6587)"
         id="g877">
        <mask
           id="mask0_260_6587"
           maskUnits="userSpaceOnUse"
           x="280"
           y="16"
           width="20"
           height="20">
          <rect
             x="280"
             y="16"
             width="20"
             height="20"
             fill="#d9d9d9"
             id="rect870" />
        </mask>
        <g
           mask="url(#mask0_260_6587)"
           id="g875">
          <path
             d="m 290,28.167 -4.271,-4.292 h 8.542 z"
             fill="#ffffff"
             id="path873" />
        </g>
      </g>
      <g
         id="g2342"
         transform="matrix(1.0855936,0,0,0.98027644,-1.868984,-0.76380493)">
        <g
           clip-path="url(#clip0_260_6587)"
           id="g868"
           transform="translate(1.8257896,-48.605673)" />
      </g>
    </g>
    <g
       id="g8698"
       transform="matrix(2.1396153,0,0,2.4733005,-39.739873,-20.826581)"
       style="fill:#f4d7ee;stroke:#f4d7ee">
      <path
         d="m 58.739718,35.516899 c -0.431092,0.334218 -0.773109,0.731395 -1.00656,1.168837 -0.233338,0.43753 -0.353464,0.906584 -0.353464,1.380317 0,0.473822 0.120126,0.942876 0.353464,1.380317 0.233451,0.437443 0.575468,0.834707 1.00656,1.168837 0.872723,0.677002 2.054145,1.057048 3.285657,1.057048 1.231626,0 2.412935,-0.380046 3.285771,-1.057048 0.431092,-0.33413 0.773109,-0.731394 1.00656,-1.168837 0.233338,-0.437441 0.353464,-0.906495 0.353464,-1.380317 0,-0.473733 -0.120126,-0.942787 -0.353464,-1.380317 -0.233451,-0.437442 -0.575468,-0.834619 -1.00656,-1.168837 -0.872836,-0.676914 -2.054145,-1.05696 -3.285771,-1.05696 -1.231512,0 -2.412934,0.380046 -3.285657,1.05696 z"
         fill="#ffffff"
         id="path854"
         style="fill:#f4d7ee;fill-opacity:1;stroke:#f4d7ee;stroke-width:1.00034" />
      <path
         d="m 39.988817,10.937168 c -0.430979,0.334139 -0.772996,0.73136 -1.006447,1.168828 -0.233338,0.437433 -0.353464,0.906575 -0.353464,1.380309 0,0.473733 0.120126,0.942875 0.353464,1.380316 0.233451,0.437443 0.575468,0.834707 1.006447,1.168837 0.872836,0.676914 2.054258,1.057049 3.285771,1.057049 1.231625,0 2.412934,-0.380135 3.28577,-1.057049 0.431092,-0.33413 0.773109,-0.731394 1.006561,-1.168837 0.233338,-0.437441 0.353463,-0.906583 0.353463,-1.380316 0,-0.473734 -0.120125,-0.942876 -0.353463,-1.380309 -0.233452,-0.437468 -0.575469,-0.834689 -1.006561,-1.168828 -0.872836,-0.676967 -2.054145,-1.0570131 -3.28577,-1.0570131 -1.231513,0 -2.412935,0.3800461 -3.285771,1.0570131 z"
         fill="#ffffff"
         id="path856"
         style="fill:#f4d7ee;fill-opacity:1;stroke:#f4d7ee;stroke-width:1.00034" />
      <path
         d="m 39.988817,26.957642 c -0.430979,0.33413 -0.772996,0.731307 -1.006447,1.168838 -0.233338,0.437442 -0.353464,0.906495 -0.353464,1.380317 0,0.473734 0.120126,0.942787 0.353464,1.380317 0.233451,0.437442 0.575468,0.834619 1.006447,1.168749 0.872836,0.677002 2.054258,1.057048 3.285771,1.057048 1.231625,0 2.412934,-0.380046 3.28577,-1.057048 0.431092,-0.33413 0.773109,-0.731307 1.006561,-1.168749 0.233338,-0.43753 0.353463,-0.906583 0.353463,-1.380317 0,-0.473822 -0.120125,-0.942875 -0.353463,-1.380317 -0.233452,-0.437531 -0.575469,-0.834708 -1.006561,-1.168838 -0.872836,-0.677001 -2.054145,-1.057048 -3.28577,-1.057048 -1.231513,0 -2.412935,0.380047 -3.285771,1.057048 z"
         fill="#ffffff"
         id="path858"
         style="fill:#f4d7ee;fill-opacity:1;stroke:#f4d7ee;stroke-width:1.00034" />
      <path
         d="m 21.360194,35.517252 c -0.646298,0.505875 -1.085662,1.149499 -1.262904,1.849812 -0.177128,0.700313 -0.08409,1.425792 0.267449,2.084958 0.351538,0.659076 0.945705,1.222347 1.707708,1.618552 0.76189,0.396205 1.657504,0.607598 2.573518,0.607598 0.916126,0 1.811628,-0.211393 2.573518,-0.607598 0.762002,-0.396205 1.356284,-0.959476 1.707821,-1.618552 0.351536,-0.659166 0.444577,-1.384645 0.267336,-2.084958 -0.177129,-0.700313 -0.616606,-1.343937 -1.262905,-1.849812 -0.429844,-0.338545 -0.941511,-0.607245 -1.505534,-0.790645 -0.564023,-0.183489 -1.16907,-0.277883 -1.780236,-0.277883 -0.611167,0 -1.216213,0.09439 -1.780236,0.277883 -0.564024,0.1834 -1.07569,0.4521 -1.505535,0.790645 z"
         fill="#ffffff"
         id="path860"
         style="fill:#f4d7ee;fill-opacity:1;stroke:#f4d7ee;stroke-width:1.00034" />
      <path
         d="M 58.20108,31.849504 48.723069,19.056845"
         stroke="#ffffff"
         stroke-width="3.00101"
         stroke-miterlimit="10"
         stroke-linecap="square"
         id="path862"
         style="opacity:1;fill:#f4d7ee;fill-opacity:1;stroke:#f4d7ee" />
      <path
         d="M 33.759406,38.986235 H 52.913974"
         stroke="#ffffff"
         stroke-width="3.00101"
         stroke-miterlimit="10"
         stroke-linecap="square"
         id="path864"
         style="fill:#f4d7ee;fill-opacity:1;stroke:#f4d7ee" />
      <path
         d="M 37.587101,19.056845 28.293359,31.600937"
         stroke="#ffffff"
         stroke-width="3.00101"
         stroke-miterlimit="10"
         stroke-linecap="square"
         id="path866"
         style="fill:#f4d7ee;fill-opacity:1;stroke:#f4d7ee" />
    </g>
  </g>
</svg>
