<?xml version="1.0" encoding="UTF-8" standalone="no"?>
<svg
   width="315"
   height="50"
   viewBox="0 0 315 50"
   fill="none"
   version="1.1"
   id="svg63"
   sodipodi:docname="logo_login_transparent.svg"
   inkscape:version="1.1.1 (3bf5ae0d25, 2021-09-20)"
   xmlns:inkscape="http://www.inkscape.org/namespaces/inkscape"
   xmlns:sodipodi="http://sodipodi.sourceforge.net/DTD/sodipodi-0.dtd"
   xmlns="http://www.w3.org/2000/svg"
   xmlns:svg="http://www.w3.org/2000/svg">
  <sodipodi:namedview
     id="namedview65"
     pagecolor="#ffffff"
     bordercolor="#666666"
     borderopacity="1.0"
     inkscape:pageshadow="2"
     inkscape:pageopacity="0.0"
     inkscape:pagecheckerboard="0"
     showgrid="false"
     inkscape:zoom="4.0666667"
     inkscape:cx="157.5"
     inkscape:cy="24.959016"
     inkscape:window-width="1920"
     inkscape:window-height="991"
     inkscape:window-x="-9"
     inkscape:window-y="-9"
     inkscape:window-maximized="1"
     inkscape:current-layer="svg63" />
  <g
     clip-path="url(#clip0_260_6587)"
     id="g46">
    <path
       d="M158.546 24.7028C158.378 24.2374 158.083 23.828 157.695 23.5205C157.273 23.1921 156.747 23.0257 156.213 23.0514C155.857 23.039 155.503 23.1081 155.178 23.2534C154.852 23.3986 154.565 23.6162 154.336 23.8896C153.882 24.5958 153.641 25.4177 153.641 26.2573C153.641 27.0968 153.882 27.9187 154.336 28.625C154.568 28.8919 154.858 29.1031 155.182 29.2428C155.507 29.3825 155.86 29.4471 156.213 29.4319C156.731 29.4538 157.242 29.3019 157.664 29.0003C158.071 28.7326 158.39 28.3521 158.584 27.9056L160.798 28.919C160.798 28.919 160.711 29.1129 160.661 29.213C160.419 29.6874 160.09 30.1119 159.691 30.4641C159.246 30.8481 158.735 31.149 158.183 31.3523C157.533 31.5828 156.847 31.6951 156.157 31.6839C155.22 31.7001 154.294 31.4852 153.461 31.0583C152.668 30.6395 152.016 29.998 151.584 29.213C151.102 28.3051 150.865 27.2876 150.896 26.2604C150.861 25.2293 151.103 24.2078 151.596 23.3016C152.03 22.5176 152.682 21.8765 153.473 21.4562C154.298 21.0307 155.216 20.8158 156.144 20.8307C156.97 20.8148 157.791 20.9725 158.552 21.2936C159.237 21.5874 159.832 22.0554 160.279 22.651C160.481 22.9646 160.658 23.2929 160.811 23.6331L158.546 24.7028Z"
       fill="white"
       id="path4" />
    <path
       d="M182.722 26.2418C182.755 27.2774 182.499 28.3019 181.984 29.2006C181.512 29.9927 180.821 30.6314 179.994 31.0397C179.122 31.4697 178.158 31.6842 177.186 31.6652C176.211 31.6806 175.247 31.4663 174.371 31.0397C173.549 30.6354 172.861 30.0036 172.388 29.2194C171.907 28.3082 171.656 27.2937 171.656 26.2637C171.656 25.2336 171.907 24.2191 172.388 23.308C172.857 22.5145 173.546 21.8736 174.371 21.4626C175.252 21.0496 176.213 20.8354 177.186 20.8354C178.159 20.8354 179.12 21.0496 180.001 21.4626C180.828 21.8732 181.518 22.514 181.99 23.308C182.507 24.2061 182.763 25.231 182.728 26.2668M180.226 26.2668C180.256 25.8378 180.2 25.4071 180.062 24.9999C179.923 24.5928 179.705 24.2175 179.419 23.896C178.792 23.3672 177.999 23.0771 177.179 23.0771C176.36 23.0771 175.566 23.3672 174.94 23.896C174.417 24.5755 174.133 25.4091 174.133 26.2668C174.133 27.1245 174.417 27.9581 174.94 28.6376C175.566 29.1664 176.36 29.4564 177.179 29.4564C177.999 29.4564 178.792 29.1664 179.419 28.6376C179.704 28.3157 179.922 27.9403 180.061 27.5333C180.199 27.1263 180.255 26.6957 180.226 26.2668Z"
       fill="white"
       id="path6" />
    <path
       d="M132.366 31.527V20.9554H136.607C137.291 20.9389 137.968 21.0847 138.584 21.3807C139.124 21.6517 139.573 22.076 139.873 22.6005C140.184 23.1761 140.339 23.8231 140.323 24.4772C140.348 25.1337 140.187 25.7839 139.86 26.3538C139.556 26.8657 139.102 27.2718 138.559 27.5173L140.673 31.5396H137.984L136.107 27.9239H134.856V31.5396L132.366 31.527ZM134.831 25.8972H136.044C136.488 25.9255 136.929 25.8044 137.295 25.5531C137.446 25.4196 137.564 25.2529 137.638 25.0661C137.713 24.8794 137.744 24.6777 137.727 24.4772C137.727 23.5013 137.164 23.0134 136.032 23.0134H134.818L134.831 25.8972Z"
       fill="white"
       id="path8" />
    <path
       d="M185.037 31.5213V20.9496H189.247C189.933 20.9322 190.613 21.0802 191.23 21.3813C191.77 21.6499 192.218 22.0721 192.519 22.5948C192.83 23.1704 192.985 23.8173 192.969 24.4714C192.99 25.1277 192.83 25.7771 192.506 26.3481C192.199 26.8604 191.743 27.2665 191.199 27.5116L193.319 31.5338H190.629L188.753 27.9182H187.502V31.5338L185.037 31.5213ZM187.502 25.8914H188.715C189.159 25.9208 189.6 25.7996 189.966 25.5474C190.121 25.4168 190.241 25.2507 190.318 25.0633C190.394 24.8759 190.424 24.6728 190.404 24.4714C190.404 23.4956 189.835 23.0077 188.703 23.0077H187.489L187.502 25.8914Z"
       fill="white"
       id="path10" />
    <path
       d="M68.9736 20.9556H71.8762L74.3408 27.505H74.4534L76.918 20.9556H79.8205V31.5272H77.5373V25.0341H77.456L75.129 31.4647H73.6715L71.3382 24.9966H71.2569V31.5272H68.9736V20.9556Z"
       fill="white"
       id="path12" />
    <path
       d="M88.5097 20.9556H90.9431V27.9679C90.9647 28.6834 90.7778 29.3898 90.4051 30.0009C90.0414 30.5566 89.5211 30.9919 88.9101 31.252C87.4726 31.8277 85.8687 31.8277 84.4312 31.252C83.8201 30.9919 83.2999 30.5566 82.9361 30.0009C82.5635 29.3898 82.3765 28.6834 82.3982 27.9679V20.9556H84.8378V27.8365C84.8294 28.054 84.8714 28.2704 84.9603 28.4689C85.0493 28.6675 85.1829 28.8428 85.3507 28.9813C85.7274 29.2777 86.1981 29.4287 86.6769 29.4067C87.1593 29.4273 87.6335 29.2766 88.0156 28.9813C88.1815 28.8416 88.3134 28.6658 88.4012 28.4675C88.489 28.2691 88.5304 28.0533 88.5222 27.8365L88.5097 20.9556Z"
       fill="white"
       id="path14" />
    <path
       d="M93.3818 31.5272V20.9556H95.8215V29.4567H100.025V31.5272H93.3818Z"
       fill="white"
       id="path16" />
    <path
       d="M129.782 20.9556H127.343V31.5272H129.782V20.9556Z"
       fill="white"
       id="path18" />
    <path
       d="M122.702 21.6501C121.798 21.1956 120.797 20.97 119.787 20.9933H115.846V31.5275H119.787C120.795 31.5495 121.794 31.324 122.695 30.8707C123.51 30.4487 124.183 29.796 124.628 28.994C125.08 28.1481 125.316 27.2038 125.316 26.2448C125.316 25.2857 125.08 24.3415 124.628 23.4955C124.175 22.7091 123.507 22.0688 122.702 21.6501ZM121.926 28.5311C121.616 28.813 121.252 29.0297 120.857 29.1683C120.461 29.3069 120.042 29.3646 119.624 29.3381H118.373V23.1139H119.624C120.045 23.0732 120.469 23.1261 120.867 23.2689C121.265 23.4116 121.627 23.6407 121.926 23.9397C122.225 24.2387 122.454 24.6002 122.597 24.9981C122.74 25.3961 122.792 25.8208 122.752 26.2416C122.779 26.6624 122.72 27.0842 122.578 27.4812C122.436 27.8781 122.214 28.2418 121.926 28.5499V28.5311Z"
       fill="white"
       id="path20" />
    <path
       d="M149.237 23.0012V20.9932H142.807V31.5273H149.237V29.5256H145.328V27.136H148.781V25.2031H145.328V23.0012H149.237Z"
       fill="white"
       id="path22" />
    <path
       d="M201.264 20.9932L199.206 25.4783L199.181 25.4158L197.135 20.9932H194.276L197.923 28.0555V31.5273H200.444L200.45 28.043L204.091 20.9932H201.264Z"
       fill="white"
       id="path24" />
    <path
       d="M112.856 20.9556H110.416V31.5272H112.856V20.9556Z"
       fill="white"
       id="path26" />
    <path
       d="M100.295 23.0324V20.9556H108.214V23.0324H105.374V31.5272H103.141V23.0324H100.295Z"
       fill="white"
       id="path28" />
    <path
       d="M162.33 23.0324V20.9556H170.249V23.0324H167.409V31.5272H165.176V23.0324H162.33Z"
       fill="white"
       id="path30" />
    <path
       d="M54.1855 36.031C53.8051 36.4095 53.5033 36.8593 53.2973 37.3547C53.0914 37.8502 52.9854 38.3814 52.9854 38.9179C52.9854 39.4545 53.0914 39.9857 53.2973 40.4811C53.5033 40.9765 53.8051 41.4264 54.1855 41.8048C54.9556 42.5715 55.9981 43.0019 57.0848 43.0019C58.1716 43.0019 59.214 42.5715 59.9842 41.8048C60.3646 41.4264 60.6664 40.9765 60.8724 40.4811C61.0783 39.9857 61.1843 39.4545 61.1843 38.9179C61.1843 38.3814 61.0783 37.8502 60.8724 37.3547C60.6664 36.8593 60.3646 36.4095 59.9842 36.031C59.214 35.2644 58.1716 34.834 57.0848 34.834C55.9981 34.834 54.9556 35.2644 54.1855 36.031Z"
       fill="white"
       id="path32" />
    <path
       d="M37.6395 8.19462C37.2592 8.57303 36.9574 9.02288 36.7514 9.51831C36.5455 10.0137 36.4395 10.545 36.4395 11.0815C36.4395 11.618 36.5455 12.1493 36.7514 12.6447C36.9574 13.1401 37.2592 13.59 37.6395 13.9684C38.4097 14.735 39.4522 15.1655 40.5389 15.1655C41.6257 15.1655 42.6681 14.735 43.4383 13.9684C43.8187 13.59 44.1205 13.1401 44.3265 12.6447C44.5324 12.1493 44.6384 11.618 44.6384 11.0815C44.6384 10.545 44.5324 10.0137 44.3265 9.51831C44.1205 9.02288 43.8187 8.57303 43.4383 8.19462C42.6681 7.42796 41.6257 6.99756 40.5389 6.99756C39.4522 6.99756 38.4097 7.42796 37.6395 8.19462Z"
       fill="white"
       id="path34" />
    <path
       d="M37.6395 26.3377C37.2592 26.7161 36.9574 27.1659 36.7514 27.6614C36.5455 28.1568 36.4395 28.688 36.4395 29.2246C36.4395 29.7611 36.5455 30.2923 36.7514 30.7878C36.9574 31.2832 37.2592 31.733 37.6395 32.1114C38.4097 32.8781 39.4522 33.3085 40.5389 33.3085C41.6257 33.3085 42.6681 32.8781 43.4383 32.1114C43.8187 31.733 44.1205 31.2832 44.3265 30.7878C44.5324 30.2923 44.6384 29.7611 44.6384 29.2246C44.6384 28.688 44.5324 28.1568 44.3265 27.6614C44.1205 27.1659 43.8187 26.7161 43.4383 26.3377C42.6681 25.571 41.6257 25.1406 40.5389 25.1406C39.4522 25.1406 38.4097 25.571 37.6395 26.3377Z"
       fill="white"
       id="path36" />
    <path
       d="M21.2014 36.0314C20.6311 36.6043 20.2434 37.3332 20.087 38.1263C19.9307 38.9194 20.0128 39.741 20.323 40.4875C20.6332 41.2339 21.1575 41.8718 21.8299 42.3205C22.5022 42.7692 23.2925 43.0086 24.1008 43.0086C24.9092 43.0086 25.6994 42.7692 26.3717 42.3205C27.0441 41.8718 27.5685 41.2339 27.8787 40.4875C28.1889 39.741 28.271 38.9194 28.1146 38.1263C27.9583 37.3332 27.5705 36.6043 27.0002 36.0314C26.6209 35.648 26.1694 35.3437 25.6717 35.136C25.174 34.9282 24.6401 34.8213 24.1008 34.8213C23.5615 34.8213 23.0276 34.9282 22.5299 35.136C22.0322 35.3437 21.5807 35.648 21.2014 36.0314Z"
       fill="white"
       id="path38" />
    <path
       d="M53.7102 31.8777L45.3467 17.3901"
       stroke="white"
       stroke-width="3"
       stroke-miterlimit="10"
       stroke-linecap="square"
       id="path40" />
    <path
       d="M32.1426 39.96H49.0448"
       stroke="white"
       stroke-width="3"
       stroke-miterlimit="10"
       stroke-linecap="square"
       id="path42" />
    <path
       d="M35.5202 17.3901L27.3193 31.5962"
       stroke="white"
       stroke-width="3"
       stroke-miterlimit="10"
       stroke-linecap="square"
       id="path44" />
  </g>
  <g
     clip-path="url(#clip1_260_6587)"
     id="g55">
    <mask
       id="mask0_260_6587"
       style="mask-type:alpha"
       maskUnits="userSpaceOnUse"
       x="280"
       y="16"
       width="20"
       height="20">
      <rect
         x="280"
         y="16"
         width="20"
         height="20"
         fill="#D9D9D9"
         id="rect48" />
    </mask>
    <g
       mask="url(#mask0_260_6587)"
       id="g53">
      <path
         d="M290 28.167L285.729 23.875H294.271L290 28.167Z"
         fill="white"
         id="path51" />
    </g>
  </g>
  <defs
     id="defs61">
    <clipPath
       id="clip0_260_6587">
      <rect
         width="184.091"
         height="36"
         fill="white"
         transform="translate(20 7)"
         id="rect57" />
    </clipPath>
    <clipPath
       id="clip1_260_6587" />
  </defs>
</svg>
