<svg width="4" height="14" viewBox="0 0 4 14" fill="none" xmlns="http://www.w3.org/2000/svg">
<path d="M2.00097 13.229C1.5703 13.229 1.19864 13.0727 0.885969 12.76C0.573969 12.448 0.417969 12.0767 0.417969 11.646C0.417969 11.2153 0.573969 10.8473 0.885969 10.542C1.19864 10.236 1.5703 10.083 2.00097 10.083C2.44564 10.083 2.82064 10.236 3.12597 10.542C3.4313 10.8473 3.58397 11.2223 3.58397 11.667C3.58397 12.097 3.42797 12.465 3.11597 12.771C2.8033 13.0763 2.43164 13.229 2.00097 13.229ZM2.00097 8.583C1.5703 8.583 1.19864 8.427 0.885969 8.115C0.573969 7.80233 0.417969 7.43066 0.417969 7C0.417969 6.55533 0.573969 6.18033 0.885969 5.875C1.19864 5.56966 1.5703 5.417 2.00097 5.417C2.44564 5.417 2.82064 5.573 3.12597 5.885C3.4313 6.19766 3.58397 6.56933 3.58397 7C3.58397 7.43066 3.42797 7.80233 3.11597 8.115C2.8033 8.427 2.43164 8.583 2.00097 8.583ZM2.00097 3.917C1.5703 3.917 1.19864 3.764 0.885969 3.458C0.573969 3.15266 0.417969 2.77766 0.417969 2.333C0.417969 1.903 0.573969 1.535 0.885969 1.229C1.19864 0.923663 1.5703 0.770996 2.00097 0.770996C2.44564 0.770996 2.82064 0.923663 3.12597 1.229C3.4313 1.535 3.58397 1.91 3.58397 2.354C3.58397 2.78466 3.42797 3.15266 3.11597 3.458C2.8033 3.764 2.43164 3.917 2.00097 3.917Z" fill="#4F4F4F"/>
</svg>
