<?xml version="1.0" encoding="UTF-8" standalone="no"?>
<svg
   viewBox="0 0 16 16"
   width="16"
   height="16"
   version="1.1"
   id="svg1"
   sodipodi:docname="notifications.svg"
   inkscape:version="1.3.2 (091e20e, 2023-11-25, custom)"
   xmlns:inkscape="http://www.inkscape.org/namespaces/inkscape"
   xmlns:sodipodi="http://sodipodi.sourceforge.net/DTD/sodipodi-0.dtd"
   xmlns="http://www.w3.org/2000/svg"
   xmlns:svg="http://www.w3.org/2000/svg">
  <defs
     id="defs1" />
  <sodipodi:namedview
     id="namedview1"
     pagecolor="#ffffff"
     bordercolor="#000000"
     borderopacity="0.25"
     inkscape:showpageshadow="2"
     inkscape:pageopacity="0.0"
     inkscape:pagecheckerboard="0"
     inkscape:deskcolor="#d1d1d1"
     inkscape:zoom="16.958333"
     inkscape:cx="-1.8280098"
     inkscape:cy="9.022113"
     inkscape:window-width="1920"
     inkscape:window-height="1010"
     inkscape:window-x="1699"
     inkscape:window-y="-6"
     inkscape:window-maximized="1"
     inkscape:current-layer="svg1" />
  <path
     d="M 8.1843905,0.04280552 C 7.7548347,0.04904799 7.4118143,0.37743902 7.4176969,0.77680065 V 1.6479776 C 4.3681399,2.0208061 2.2384614,4.304648 2.0835898,7.2346898 L 1.9656537,9.4659437 c -0.097673,1.8478853 -0.9167676,3.1085183 -0.9167676,3.1085183 -0.49033778,0.456176 -0.55577985,1.2358 0.1379043,1.236053 h 4.6731798 c 0,1.191115 1.0553832,2.172285 2.33659,2.172285 1.2812067,0 2.3365908,-0.98117 2.3365908,-2.172285 h 4.673179 c 0.693684,-2.53e-4 0.39237,-1.015749 -0.09797,-1.471925 0,0 -0.590379,-1.024396 -0.680894,-2.8726463 L 14.309532,7.0577857 C 14.170642,4.2217722 12.02498,2.0208061 8.9754236,1.6479776 V 0.77680065 C 8.9814366,0.36857749 8.6234779,0.0364296 8.1843905,0.04280552 Z M 8.153966,2.9575719 c 0.028881,0.0015 0.057829,0.0015 0.08671,0 2.568299,0.023269 4.629066,1.9426512 4.629066,4.336086 v 2.1722858 c 0,1.1970673 0.416396,2.1800953 0.844276,2.8963803 H 2.6791046 C 3.1069838,11.646039 3.5233803,10.663011 3.5233803,9.4659437 V 7.2936579 c 0,-2.3939178 2.0615612,-4.3135808 4.6305857,-4.336086 z M 7.4176969,13.810515 h 1.5577267 c 0,0.409135 -0.3387823,0.724095 -0.7788634,0.724095 -0.440081,0 -0.7788633,-0.31496 -0.7788633,-0.724095 z"
     id="path1"
     style="stroke-width:0.75098"
     sodipodi:nodetypes="cccsscccscccsscccccssccsscccsc" />
</svg>
