<svg width="10" height="11" viewBox="0 0 10 11" fill="none" xmlns="http://www.w3.org/2000/svg">
<path d="M5.00001 5.43341C4.28907 5.43341 3.68907 5.18621 3.20001 4.69181C2.71094 4.19688 2.46641 3.59954 2.46641 2.89981C2.46641 2.18888 2.71094 1.58888 3.20001 1.09981C3.68907 0.610744 4.28907 0.366211 5.00001 0.366211C5.71094 0.366211 6.31094 0.610744 6.80001 1.09981C7.28907 1.58888 7.53361 2.18888 7.53361 2.89981C7.53361 3.59954 7.28907 4.19688 6.80001 4.69181C6.31094 5.18621 5.71094 5.43341 5.00001 5.43341ZM0.0664062 10.4998V8.76621C0.0664062 8.47768 0.141606 8.21101 0.292006 7.96621C0.441873 7.72194 0.65014 7.51634 0.916806 7.34941C1.53867 6.98301 2.19707 6.70541 2.89201 6.51661C3.58641 6.32781 4.28907 6.23341 5.00001 6.23341C5.71094 6.23341 6.41361 6.32781 7.10801 6.51661C7.80294 6.70541 8.46134 6.97768 9.08321 7.33341C9.34987 7.48861 9.55814 7.69394 9.70801 7.94941C9.85841 8.20541 9.93361 8.47768 9.93361 8.76621V10.4998H0.0664062ZM1.44961 9.11661H8.55041V8.78301C8.55041 8.72754 8.53361 8.67768 8.50001 8.63341C8.46641 8.58861 8.42187 8.55528 8.36641 8.53341C7.87787 8.22194 7.34747 7.99128 6.77521 7.84141C6.20294 7.69154 5.61121 7.61661 5.00001 7.61661C4.38881 7.61661 3.79707 7.69154 3.22481 7.84141C2.65254 7.99128 2.12214 8.22194 1.63361 8.53341C1.57814 8.56648 1.53361 8.60248 1.50001 8.64141C1.46641 8.68034 1.44961 8.72754 1.44961 8.78301V9.11661ZM5.00001 4.05021C5.32214 4.05021 5.59441 3.93608 5.81681 3.70781C6.03921 3.48008 6.15041 3.21074 6.15041 2.89981C6.15041 2.57768 6.03627 2.30541 5.80801 2.08301C5.58027 1.86061 5.31094 1.74941 5.00001 1.74941C4.67787 1.74941 4.40561 1.86354 4.18321 2.09181C3.96081 2.31954 3.84961 2.58888 3.84961 2.89981C3.84961 3.22194 3.96374 3.49421 4.19201 3.71661C4.41974 3.93901 4.68907 4.05021 5.00001 4.05021Z" fill="#3879B4"/>
</svg>
