<svg width="18" height="14" viewBox="0 0 18 14" fill="none" xmlns="http://www.w3.org/2000/svg">
<path d="M13.8325 7.79201V6.08301H12.1245V4.50001H13.8325V2.79201H15.4165V4.50001H17.1245V6.08301H15.4165V7.79201H13.8325ZM7.02051 6.91701C6.13185 6.91701 5.38185 6.60801 4.77051 5.99001C4.15918 5.37134 3.85352 4.62467 3.85352 3.75001C3.85352 2.86134 4.15918 2.11134 4.77051 1.50001C5.38185 0.888675 6.13185 0.583008 7.02051 0.583008C7.89518 0.583008 8.64151 0.888675 9.25951 1.50001C9.87818 2.11134 10.1875 2.86134 10.1875 3.75001C10.1875 4.62467 9.87818 5.37134 9.25951 5.99001C8.64151 6.60801 7.89518 6.91701 7.02051 6.91701ZM0.853516 13.25V11.167C0.853516 10.7777 0.947182 10.42 1.13452 10.094C1.32252 9.76734 1.58318 9.50667 1.91652 9.31201C2.69385 8.85401 3.51318 8.50701 4.37452 8.27101C5.23585 8.03501 6.11785 7.91701 7.02051 7.91701C7.92318 7.91701 8.80518 8.03501 9.66651 8.27101C10.5272 8.50701 11.3395 8.84734 12.1035 9.29201C12.4368 9.48601 12.7008 9.74634 12.8955 10.073C13.0902 10.399 13.1875 10.7637 13.1875 11.167V13.25H0.853516ZM2.58252 11.521H11.4575V11.188C11.4575 11.104 11.4368 11.024 11.3955 10.948C11.3535 10.8713 11.2978 10.8193 11.2285 10.792C10.5898 10.4167 9.91618 10.132 9.20751 9.93801C8.49951 9.74334 7.77051 9.64601 7.02051 9.64601C6.27051 9.64601 5.53785 9.74334 4.82252 9.93801C4.10718 10.132 3.43685 10.4167 2.81152 10.792C2.74218 10.8193 2.68685 10.8713 2.64552 10.948C2.60352 11.024 2.58252 11.104 2.58252 11.188V11.521ZM7.02051 5.18801C7.42318 5.18801 7.76351 5.04534 8.04151 4.76001C8.31885 4.47534 8.45751 4.13867 8.45751 3.75001C8.45751 3.34734 8.31518 3.00701 8.03051 2.72901C7.74585 2.45101 7.40918 2.31201 7.02051 2.31201C6.61785 2.31201 6.27751 2.45467 5.99952 2.74001C5.72152 3.02467 5.58252 3.36134 5.58252 3.75001C5.58252 4.15267 5.72152 4.49301 5.99952 4.77101C6.27751 5.04901 6.61785 5.18801 7.02051 5.18801Z" fill="#3879B4"/>
</svg>
