<?xml version="1.0" encoding="UTF-8" standalone="no"?>
<!-- Uploaded to: SVG Repo, www.svgrepo.com, Generator: SVG Repo Mixer Tools -->

<svg
   fill="#000000"
   width="12"
   height="12.954128"
   viewBox="0 0 0.48 0.51816514"
   id="icon"
   version="1.1"
   sodipodi:docname="policy-svgrepo-com.svg"
   inkscape:version="1.3.2 (091e20e, 2023-11-25, custom)"
   xmlns:inkscape="http://www.inkscape.org/namespaces/inkscape"
   xmlns:sodipodi="http://sodipodi.sourceforge.net/DTD/sodipodi-0.dtd"
   xmlns="http://www.w3.org/2000/svg"
   xmlns:svg="http://www.w3.org/2000/svg"
   xmlns:rdf="http://www.w3.org/1999/02/22-rdf-syntax-ns#"
   xmlns:cc="http://creativecommons.org/ns#"
   xmlns:dc="http://purl.org/dc/elements/1.1/">
  <sodipodi:namedview
     id="namedview2"
     pagecolor="#ffffff"
     bordercolor="#000000"
     borderopacity="0.25"
     inkscape:showpageshadow="2"
     inkscape:pageopacity="0.0"
     inkscape:pagecheckerboard="0"
     inkscape:deskcolor="#d1d1d1"
     inkscape:zoom="23.023397"
     inkscape:cx="12.378712"
     inkscape:cy="13.681734"
     inkscape:window-width="1920"
     inkscape:window-height="1010"
     inkscape:window-x="1699"
     inkscape:window-y="-6"
     inkscape:window-maximized="1"
     inkscape:current-layer="g10" />
  <defs
     id="defs1">
    <style
       id="style1">.cls-1{fill:none;}</style>
  </defs>
  <title
     id="title1">policy</title>
  <g
     id="g10"
     transform="matrix(0.04875614,0,0,0.04914005,-0.19167032,-0.09272617)">
    <g
       id="g11"
       transform="matrix(0.74890312,0,0,0.7500534,0.98711298,0.47164362)">
      <rect
         id="_Transparent_Rectangle_"
         data-name="&lt;Transparent Rectangle&gt;"
         class="cls-1"
         width="0.78185773"
         height="0.78545588"
         x="0"
         y="0"
         style="stroke-width:0.0244892"
         transform="matrix(20.510237,0,0,20.35,3.9312037,1.8869775)" />
      <path
         d="m 16.995001,9.9354473 a 3.0067666,2.9970056 0 1 0 -5.011278,2.2277737 v 3.766237 l 2.004511,-0.945356 2.004511,0.945356 v -3.766237 a 2.996744,2.9870156 0 0 0 1.002256,-2.2277737 z m -2.004511,4.4155887 -1.002256,-0.472878 -1.002255,0.472878 v -1.593409 a 2.9504899,2.9409115 0 0 0 2.004511,0 z m -1.002256,-2.417585 a 2.004511,1.9980037 0 1 1 2.004511,-1.9980037 2.0067661,2.0002515 0 0 1 -2.004511,1.9980037 z"
         id="path1"
         style="stroke-width:0.500314" />
      <rect
         x="6.4713182"
         y="7.9374437"
         width="3.5078945"
         height="0.99900186"
         id="rect1"
         style="stroke-width:0.500314" />
      <rect
         x="6.4713182"
         y="4.9404378"
         width="5.0112777"
         height="0.99900186"
         id="rect2"
         style="stroke-width:0.500314" />
      <path
         d="M 4.9679349,15.929458 A 1.0033079,1.0000508 0 0 1 3.9656795,14.930457 V 2.9424342 A 1.0033079,1.0000508 0 0 1 4.9679349,1.9434323 h 8.0180441 a 1.0033079,1.0000508 0 0 1 1.002255,0.9990019 V 4.9404379 H 12.985979 V 2.9424342 H 4.9679349 V 14.930457 H 9.979213 v 0.999001 z"
         id="path2"
         style="stroke-width:0.500314" />
      <path
         style="fill:#0000ff;stroke-width:0.0196683"
         d="M 6.4725496,8.435717 V 7.944807 H 8.225881 9.979213 v 0.49091 0.49091 H 8.225881 6.4725496 Z"
         id="path3" />
      <path
         style="fill:#0000ff;stroke-width:0.0196683"
         d="M 6.4725496,5.4313477 V 4.9404379 H 8.9744945 11.476439 V 5.4313477 5.9222579 H 8.9744945 6.4725496 Z"
         id="path4" />
      <path
         style="fill:#0000ff;stroke-width:0.0196683"
         d="M 4.7214309,15.886149 C 4.395521,15.798785 4.1317225,15.545571 4.0173081,15.210275 c -0.035696,-0.104608 -0.036853,-0.30164 -0.036853,-6.2738298 0,-5.97219 0.00116,-6.1692213 0.036854,-6.2738297 0.1159154,-0.3396941 0.3799476,-0.5904851 0.7125788,-0.6768433 0.1022092,-0.026536 0.6007417,-0.030067 4.2446076,-0.030067 3.5930405,0 4.1434105,0.0038 4.2414235,0.029241 0.366888,0.095252 0.646798,0.3775604 0.732132,0.7384067 0.02456,0.103861 0.0298,0.3082269 0.03004,1.1714474 l 2.92e-4,1.0456383 h -0.49251 -0.492508 V 3.9389815 2.9375251 H 8.9744945 4.9556223 v 5.9989201 5.9989198 h 2.511795 2.5117957 v 0.49091 0.490911 L 7.4033913,15.9159 C 5.2190309,15.9148 4.8114394,15.9103 4.7214309,15.88616 Z"
         id="path5" />
      <path
         style="fill:#1d22ff;fill-opacity:1;stroke-width:0.0196683"
         d="m 11.988648,14.039873 v -1.878694 l -0.146422,-0.152761 c -0.983667,-1.026251 -1.127425,-2.5510158 -0.350727,-3.7199739 0.447912,-0.6741228 1.103365,-1.1136665 1.924152,-1.2903272 0.286555,-0.061676 0.85896,-0.061597 1.145944,1.599e-4 0.283509,0.061007 0.476043,0.1277222 0.746563,0.2586923 0.307213,0.1487338 0.544092,0.3171505 0.787976,0.5602357 0.801899,0.7992704 1.084751,1.9476693 0.744668,3.0234022 -0.132592,0.419406 -0.37793,0.824121 -0.70987,1.171015 l -0.142913,0.149352 -0.0051,1.874424 -0.0051,1.874424 -0.758463,-0.35846 c -0.417155,-0.197155 -0.865115,-0.408144 -0.995465,-0.468867 l -0.237001,-0.110404 -0.961828,0.453305 c -0.529005,0.249317 -0.978643,0.462275 -0.999196,0.473239 -0.03658,0.0195 -0.03737,-0.02021 -0.03737,-1.85876 z m 1.555547,0.06217 0.442476,-0.209415 0.138684,0.0636 c 0.07627,0.03498 0.30269,0.141506 0.503141,0.236726 l 0.364457,0.173128 0.0052,-0.79841 c 0.0029,-0.439125 6.76e-4,-0.802866 -0.0048,-0.808314 -0.0055,-0.0054 -0.08757,0.01316 -0.182452,0.04134 -0.234764,0.06974 -0.356321,0.09154 -0.60809,0.109039 -0.364992,0.02538 -0.809525,-0.02509 -1.088754,-0.123601 -0.04741,-0.01672 -0.09839,-0.03041 -0.113277,-0.03041 -0.02252,0 -0.02707,0.135321 -0.02707,0.805356 v 0.805355 l 0.06403,-0.02749 c 0.03522,-0.01512 0.263141,-0.121725 0.506503,-0.236904 z m 0.631193,-2.170901 c 0.485083,-0.04789 0.896808,-0.240632 1.232831,-0.577128 0.184177,-0.184435 0.297958,-0.345046 0.403387,-0.569415 0.152116,-0.32372 0.216605,-0.700211 0.178984,-1.0449115 C 15.83594,8.322736 14.347133,7.5118656 13.071653,8.1499063 12.879405,8.2460756 12.776282,8.319356 12.605067,8.4814648 12.419955,8.6567323 12.301832,8.8138635 12.19331,9.0291951 11.915016,9.5813984 11.904496,10.230508 12.164863,10.7846 c 0.303855,0.646642 0.918648,1.079734 1.626369,1.145699 0.08668,0.0081 0.166468,0.01574 0.177303,0.017 0.01083,0.0013 0.10392,-0.006 0.206854,-0.01616 z"
         id="path6" />
      <path
         style="fill:#1d22ff;fill-opacity:1;stroke-width:0.0196683"
         d="M 6.718804,15.897911 C 4.8717896,15.88846 4.7227697,15.885225 4.6412576,15.852802 4.4052758,15.758934 4.1875949,15.552457 4.0734807,15.314248 L 4.000155,15.161184 V 8.9349649 2.7087457 L 4.0834531,2.541189 C 4.2250894,2.2562827 4.4881446,2.0466923 4.7737123,1.9912218 c 0.1661733,-0.032279 8.2892287,-0.029841 8.4264977,0.00253 0.354459,0.083586 0.661107,0.3910174 0.735715,0.7375922 0.01249,0.058016 0.02653,0.5299651 0.03433,1.1536386 l 0.01318,1.0554565 H 13.488402 12.993367 V 3.9389815 2.9375251 H 8.9744945 4.9556223 v 5.9989201 5.9989198 h 2.511795 2.5117957 v 0.49091 0.490911 l -0.6353368,-0.0046 c -0.349435,-0.0025 -1.5307176,-0.0091 -2.6250722,-0.01473 z"
         id="path7" />
      <path
         style="fill:#1d22ff;fill-opacity:1;stroke-width:0.0196683"
         d="m 14.974626,15.424391 -0.983645,-0.463928 -0.139276,0.06382 c -0.0766,0.0351 -0.514728,0.241527 -0.973616,0.458725 -0.458888,0.217197 -0.840861,0.394905 -0.84883,0.394905 -0.01882,0 -0.04056,-1.465588 -0.04059,-2.736997 l -2e-5,-0.999175 -0.138919,-0.14577 c -0.215371,-0.225995 -0.382187,-0.463684 -0.521055,-0.74243 -0.140151,-0.281326 -0.205548,-0.46647 -0.270052,-0.764551 -0.0624,-0.288306 -0.06159,-0.8367986 0.0017,-1.1303622 0.174274,-0.8090273 0.633352,-1.4817719 1.312537,-1.923426 0.211981,-0.1378449 0.441681,-0.2449042 0.716978,-0.3341709 0.353202,-0.1145282 0.453418,-0.1283839 0.918152,-0.1269424 0.436491,0.00135 0.584437,0.022415 0.901447,0.1283266 0.178038,0.059481 0.581405,0.2552086 0.726791,0.3526636 0.656113,0.4398016 1.110087,1.116963 1.28137,1.9113239 0.0626,0.2903633 0.06265,0.8161044 8e-5,1.1264794 -0.112829,0.559747 -0.366679,1.045651 -0.776347,1.486034 l -0.163313,0.175557 -0.0098,1.866922 -0.0098,1.866923 z m -1.487899,-1.284299 c 0.263249,-0.124201 0.489318,-0.22582 0.502375,-0.22582 0.01305,0 0.238729,0.101619 0.501492,0.22582 0.262764,0.124199 0.485505,0.225818 0.49498,0.225818 0.0095,0 0.01723,-0.358454 0.01723,-0.805093 0,-0.685665 -0.0042,-0.805092 -0.02822,-0.805092 -0.01552,0 -0.131463,0.02654 -0.257651,0.05897 -0.485041,0.124657 -1.092584,0.117133 -1.528081,-0.01892 -0.06959,-0.02174 -0.146481,-0.03964 -0.17086,-0.03979 l -0.04433,-2.54e-4 v 0.805093 c 0,0.446084 0.0076,0.805092 0.01722,0.805092 0.0095,0 0.2326,-0.101618 0.495848,-0.225818 z m 0.824918,-2.219604 c 0.463078,-0.07485 0.800479,-0.254618 1.146418,-0.610791 0.240424,-0.247537 0.385122,-0.505583 0.485324,-0.8655 0.04818,-0.173055 0.0534,-0.223281 0.05264,-0.5062949 -7.45e-4,-0.2774897 -0.007,-0.337116 -0.05376,-0.5105469 -0.187474,-0.6956501 -0.728015,-1.2412924 -1.422119,-1.43554 -0.222437,-0.062249 -0.603814,-0.084146 -0.831706,-0.047753 -0.964299,0.1539965 -1.661651,0.9221378 -1.713035,1.8869305 -0.0685,1.2861273 1.060342,2.2957443 2.336242,2.0894953 z"
         id="path8" />
      <path
         style="fill:#1d22ff;fill-opacity:1;stroke-width:0.0196683"
         d="M 6.4725496,8.435717 V 7.944807 H 8.225881 9.979213 v 0.49091 0.49091 H 8.225881 6.4725496 Z"
         id="path9" />
      <path
         style="fill:#1d22ff;fill-opacity:1;stroke-width:0.0196683"
         d="M 6.4725496,5.4313477 V 4.9404379 H 8.9744945 11.476439 V 5.4313477 5.9222579 H 8.9744945 6.4725496 Z"
         id="path10" />
    </g>
    <path
       style="fill:#0000ff;fill-opacity:1;stroke-width:0.0266021"
       d="M 5.5190333,12.375749 C 4.5909598,12.363259 4.4689261,12.356667 4.3919638,12.314871 4.2640825,12.245423 4.1266814,12.098546 4.0512892,11.950703 L 3.9845762,11.819878 V 7.1779893 c 0,-4.5920313 5.753e-4,-4.6431054 0.053561,-4.7551175 0.080655,-0.1705071 0.1918729,-0.2903182 0.3505875,-0.3776756 l 0.1429195,-0.078664 3.1756591,7e-4 c 2.9473377,6.495e-4 3.1827827,0.00398 3.2747387,0.04635 0.138084,0.063621 0.277672,0.1913967 0.358127,0.3278203 0.07861,0.1332797 0.08238,0.1771483 0.100847,1.1698255 l 0.01196,0.6430709 H 11.094587 10.736188 V 3.411785 2.6692701 H 7.7073026 4.6784176 v 4.5081267 4.5081272 h 1.8813779 1.881378 v 0.357998 0.357998 l -0.940689,-0.0058 C 6.9831056,12.39248 6.0914526,12.3835 5.5190333,12.375805 Z"
       id="path11" />
    <path
       style="fill:#3879b4;fill-opacity:1;stroke-width:0.0266021"
       d="M 6.3062765,12.373635 C 5.1204989,12.36068 4.5489952,12.345079 4.4692308,12.323483 4.3253568,12.28453 4.1484902,12.114795 4.0495009,11.920677 L 3.9777293,11.779932 3.9892732,7.1625535 4.0008171,2.5451742 4.0738255,2.3968888 C 4.1531301,2.2358131 4.2724518,2.1168764 4.439913,2.0319814 4.5461091,1.9781449 4.5688345,1.9778244 7.7415896,1.9854114 l 3.1947444,0.00764 0.0993,0.061354 c 0.13713,0.084728 0.307974,0.2841255 0.342263,0.3994639 0.01571,0.052837 0.03563,0.4570489 0.04428,0.8982487 L 11.4379,4.1542958 H 11.087043 10.736188 V 3.411785 2.6692701 H 7.7073026 4.6784176 v 4.5081267 4.5081272 h 1.8813779 1.881378 v 0.357998 0.357998 L 8.2343553,12.397 C 8.1206052,12.3945 7.2529699,12.384 6.3062765,12.37365 Z"
       id="path12" />
    <path
       style="fill:#3879b4;fill-opacity:1;stroke-width:0.0266021"
       d="M 5.8526109,4.5388167 V 4.1808184 H 7.7073026 9.5619943 V 4.5388167 4.896815 H 7.7073026 5.8526109 Z"
       id="path13" />
    <path
       style="fill:#3879b4;fill-opacity:1;stroke-width:0.0266021"
       d="M 5.8526109,6.7928801 V 6.4348817 H 7.1468922 8.4411735 V 6.7928801 7.1508783 H 7.1468922 5.8526109 Z"
       id="path14" />
    <path
       style="fill:#3879b4;fill-opacity:1;stroke-width:0.0266021"
       d="M 9.9887942,11.73193 C 9.9886955,11.378241 9.981161,10.748761 9.972051,10.333086 L 9.9554874,9.5773109 9.8284921,9.4303921 C 9.4057008,8.9412723 9.2220173,8.4298201 9.2489961,7.8168302 9.2652947,7.4465035 9.3102465,7.2687987 9.4689582,6.9472682 9.7513451,6.375187 10.210361,5.9863524 10.842932,5.7833674 c 0.202126,-0.06486 0.267527,-0.072896 0.600441,-0.073776 0.427595,-0.00113 0.589722,0.032448 0.938642,0.1944067 0.621798,0.2886207 1.025829,0.758228 1.225701,1.4246436 0.09089,0.3030463 0.102688,0.7867029 0.02671,1.0951189 -0.09192,0.3731324 -0.351721,0.8367547 -0.600892,1.0723268 l -0.08239,0.077887 v 1.4005126 c 0,0.770283 -0.0066,1.400514 -0.01465,1.400514 -0.008,0 -0.343247,-0.154698 -0.744866,-0.343774 l -0.730221,-0.343772 -0.725219,0.343772 c -0.39887,0.189076 -0.730168,0.343774 -0.736217,0.343774 -0.00605,0 -0.011078,-0.289382 -0.011173,-0.643072 z m 1.4158828,-0.795969 c 0.0584,-0.02326 0.116634,-0.004 0.410795,0.135828 0.188509,0.08961 0.359034,0.162921 0.378943,0.162921 0.02941,0 0.0362,-0.112576 0.0362,-0.600133 v -0.600133 l -0.08673,0.01537 c -0.04771,0.0084 -0.176796,0.03505 -0.286877,0.05911 -0.243551,0.05323 -0.670843,0.04031 -0.941651,-0.02847 -0.0996,-0.0253 -0.189667,-0.0375 -0.200146,-0.02711 -0.02615,0.02592 -0.04143,0.836999 -0.01959,1.0397 l 0.01772,0.164397 0.311643,-0.14719 c 0.171405,-0.08095 0.342266,-0.159382 0.379693,-0.174284 z m 0.419248,-1.5444263 c 0.524553,-0.1228981 0.974579,-0.572628 1.113298,-1.1125664 0.128048,-0.498405 -0.03635,-1.0551777 -0.423151,-1.4331262 -0.670498,-0.6551475 -1.746638,-0.5575644 -2.287255,0.2074055 -0.3312761,0.4687539 -0.3679344,1.0812826 -0.09551,1.59592 0.176803,0.3340027 0.571369,0.6409412 0.951803,0.7404219 0.191867,0.050168 0.531173,0.051066 0.740816,0.00195 z"
       id="path15" />
  </g>
  <metadata
     id="metadata10">
    <rdf:RDF>
      <cc:Work
         rdf:about="">
        <dc:title>policy</dc:title>
      </cc:Work>
    </rdf:RDF>
  </metadata>
</svg>
