<svg width="16" height="16" viewBox="0 0 16 16" fill="none" xmlns="http://www.w3.org/2000/svg">
<path d="M13.9375 15.188L8.91652 10.167C8.49985 10.4583 8.04485 10.691 7.55152 10.865C7.05818 11.0383 6.52685 11.125 5.95752 11.125C4.54085 11.125 3.33618 10.625 2.34352 9.625C1.35018 8.625 0.853516 7.41667 0.853516 6C0.853516 4.58333 1.35018 3.375 2.34352 2.375C3.33618 1.375 4.54085 0.875 5.95752 0.875C7.37418 0.875 8.58252 1.375 9.58252 2.375C10.5825 3.375 11.0825 4.58333 11.0825 6C11.0825 6.56933 10.9992 7.10067 10.8325 7.594C10.6658 8.08667 10.4368 8.53467 10.1455 8.938L15.1455 13.958L13.9375 15.188ZM5.95752 9.375C6.90218 9.375 7.70452 9.04867 8.36452 8.396C9.02385 7.74333 9.35352 6.94467 9.35352 6C9.35352 5.05533 9.02385 4.25667 8.36452 3.604C7.70452 2.95133 6.90218 2.625 5.95752 2.625C5.01352 2.625 4.21485 2.95133 3.56152 3.604C2.90885 4.25667 2.58252 5.05533 2.58252 6C2.58252 6.94467 2.90885 7.74333 3.56152 8.396C4.21485 9.04867 5.01352 9.375 5.95752 9.375Z" fill="#4F4F4F"/>
</svg>
