<svg width="18" height="18" viewBox="0 0 18 18" fill="none" xmlns="http://www.w3.org/2000/svg">
<path d="M6.50048 17.5L6.18848 14.833C6.06315 14.7497 5.93115 14.6663 5.79248 14.583C5.65315 14.4997 5.52115 14.4233 5.39648 14.354L2.91748 15.417L0.396484 11.083L2.52148 9.458C2.53548 9.38867 2.54248 9.31233 2.54248 9.229V8.771C2.54248 8.68767 2.53548 8.61133 2.52148 8.542L0.396484 6.917L2.91748 2.604L5.41748 3.646C5.52815 3.57667 5.65315 3.50033 5.79248 3.417C5.93115 3.33367 6.06315 3.25733 6.18848 3.188L6.50048 0.5H11.5005L11.8125 3.188C11.9378 3.25733 12.0698 3.33367 12.2085 3.417C12.3478 3.50033 12.4798 3.57667 12.6045 3.646L15.0835 2.604L17.6045 6.917L15.4795 8.542V9.458L17.6045 11.083L15.0835 15.417L12.5835 14.354C12.4728 14.4233 12.3478 14.4997 12.2085 14.583C12.0698 14.6663 11.9378 14.7497 11.8125 14.833L11.5005 17.5H6.50048ZM8.97948 11.979C9.79882 11.979 10.5002 11.6873 11.0835 11.104C11.6668 10.5207 11.9585 9.81933 11.9585 9C11.9585 8.18067 11.6668 7.47933 11.0835 6.896C10.5002 6.31267 9.79882 6.021 8.97948 6.021C8.17415 6.021 7.47615 6.31267 6.88548 6.896C6.29548 7.47933 6.00048 8.18067 6.00048 9C6.00048 9.81933 6.29548 10.5207 6.88548 11.104C7.47615 11.6873 8.17415 11.979 8.97948 11.979ZM8.97948 10.229C8.64615 10.229 8.35815 10.1077 8.11548 9.865C7.87215 9.62167 7.75048 9.33333 7.75048 9C7.75048 8.66667 7.87215 8.37833 8.11548 8.135C8.35815 7.89233 8.64615 7.771 8.97948 7.771C9.31282 7.771 9.60115 7.89233 9.84448 8.135C10.0872 8.37833 10.2085 8.66667 10.2085 9C10.2085 9.33333 10.0872 9.62167 9.84448 9.865C9.60115 10.1077 9.31282 10.229 8.97948 10.229ZM8.22948 15.521H9.77148L10.0215 13.375C10.4382 13.2637 10.8375 13.0937 11.2195 12.865C11.6015 12.6357 11.9452 12.3613 12.2505 12.042L14.2715 12.896L15.0425 11.625L13.2715 10.271C13.3408 10.0763 13.3928 9.87133 13.4275 9.656C13.4622 9.44067 13.4795 9.222 13.4795 9C13.4795 8.80533 13.4622 8.604 13.4275 8.396C13.3928 8.18733 13.3478 7.972 13.2925 7.75L15.0625 6.375L14.2925 5.104L12.2715 5.979C11.9522 5.64567 11.6048 5.368 11.2295 5.146C10.8548 4.92333 10.4592 4.75667 10.0425 4.646L9.77148 2.479H8.20848L7.95848 4.646C7.54182 4.75667 7.14615 4.92333 6.77148 5.146C6.39615 5.368 6.04882 5.63867 5.72948 5.958L3.72948 5.104L2.95848 6.375L4.68848 7.729C4.63248 7.951 4.58715 8.16967 4.55248 8.385C4.51782 8.60033 4.50048 8.80533 4.50048 9C4.50048 9.19467 4.51782 9.396 4.55248 9.604C4.58715 9.81267 4.63248 10.035 4.68848 10.271L2.95848 11.625L3.72948 12.896L5.72948 12.062C6.04882 12.368 6.39615 12.632 6.77148 12.854C7.14615 13.0767 7.54182 13.2433 7.95848 13.354L8.22948 15.521Z" fill="#3879B4"/>
</svg>
